{
	"asset":{
		"version":"2.0",
		"generator":"Houdini GLTF 2.0 Exporter"
	},
	"accessors":[
		{
			"bufferView":0,
			"componentType":5123,
			"count":5856,
			"type":"SCALAR",
			"min":[0
			],
			"max":[5855
			]
		},
		{
			"bufferView":1,
			"componentType":5126,
			"count":5856,
			"type":"VEC3",
			"min":[-4.03000021,-7.15255899e-09,-5.03000021
			],
			"max":[4.03000069,4.03000021,5
			]
		},
		{
			"bufferView":2,
			"componentType":5126,
			"count":5856,
			"type":"VEC2",
			"min":[-5.03000021,-4.03000021
			],
			"max":[5.03000021,6.03000021
			]
		},
		{
			"bufferView":3,
			"componentType":5126,
			"count":5856,
			"type":"VEC3",
			"min":[-1,-1,-1
			],
			"max":[1,1,1
			]
		},
		{
			"bufferView":4,
			"componentType":5123,
			"count":1008,
			"type":"SCALAR",
			"min":[0
			],
			"max":[1007
			]
		},
		{
			"bufferView":5,
			"componentType":5126,
			"count":1008,
			"type":"VEC3",
			"min":[-4,0,-5
			],
			"max":[4,0.0299999993,5
			]
		},
		{
			"bufferView":6,
			"componentType":5126,
			"count":1008,
			"type":"VEC2",
			"min":[-0.300000012,-0.5
			],
			"max":[1.29999995,1.5
			]
		},
		{
			"bufferView":7,
			"componentType":5126,
			"count":1008,
			"type":"VEC3",
			"min":[-1,-1,-1
			],
			"max":[1,1,1
			]
		}
	],
	"buffers":[
		{
			"uri":"chamber3_data.bin",
			"byteLength":233376,
			"name":"main_buffer"
		}
	],
	"bufferViews":[
		{
			"buffer":0,
			"byteLength":11712,
			"target":34963
		},
		{
			"buffer":0,
			"byteOffset":11712,
			"byteLength":70272,
			"target":34962
		},
		{
			"buffer":0,
			"byteOffset":81984,
			"byteLength":46848,
			"target":34962
		},
		{
			"buffer":0,
			"byteOffset":128832,
			"byteLength":70272,
			"target":34962
		},
		{
			"buffer":0,
			"byteOffset":199104,
			"byteLength":2016,
			"target":34963
		},
		{
			"buffer":0,
			"byteOffset":201120,
			"byteLength":12096,
			"target":34962
		},
		{
			"buffer":0,
			"byteOffset":213216,
			"byteLength":8064,
			"target":34962
		},
		{
			"buffer":0,
			"byteOffset":221280,
			"byteLength":12096,
			"target":34962
		}
	],
	"nodes":[
		{
			"name":"chamber3",
			"mesh":0
		}
	],
	"meshes":[
		{
			"primitives":[
				{
					"attributes":{
						"NORMAL":3,
						"TEXCOORD_0":2,
						"POSITION":1
					},
					"indices":0,
					"material":0
				},
				{
					"attributes":{
						"NORMAL":7,
						"TEXCOORD_0":6,
						"POSITION":5
					},
					"indices":4,
					"material":1
				}
			]
		}
	],
	"materials":[
		{
			"name":"Concrete_Slab_2x2_M",
			"pbrMetallicRoughness":{
				"metallicFactor":0,
				"baseColorTexture":{
					"index":0
				},
				"metallicRoughnessTexture":{
					"index":1
				}
			},
			"normalTexture":{
				"index":2
			}
		},
		{
			"name":"Worn_Concrete_Wall",
			"pbrMetallicRoughness":{
				"metallicFactor":0,
				"baseColorTexture":{
					"index":3
				},
				"metallicRoughnessTexture":{
					"index":4
				}
			},
			"normalTexture":{
				"index":5
			}
		}
	],
	"scenes":[
		{
			"nodes":[0
			]
		}
	],
	"textures":[
		{
			"source":0
		},
		{
			"source":1
		},
		{
			"source":2
		},
		{
			"source":3
		},
		{
			"source":4
		},
		{
			"source":5
		}
	],
	"images":[
		{
			"uri":"sdwocfwa_2K_Albedo.png",
			"mimeType":"image/png"
		},
		{
			"uri":"sdwocfwa_2K_Roughness.png",
			"mimeType":"image/png"
		},
		{
			"uri":"sdwocfwa_2K_Normal.png",
			"mimeType":"image/png"
		},
		{
			"uri":"uhnlfbvn_2K_Albedo.png",
			"mimeType":"image/png"
		},
		{
			"uri":"uhnlfbvn_2K_Roughness.png",
			"mimeType":"image/png"
		},
		{
			"uri":"uhnlfbvn_2K_Normal.png",
			"mimeType":"image/png"
		}
	],
	"scene":0
}
