{
    "asset" : {
        "generator" : "Khronos glTF Blender I/O v0.9.36",
        "version" : "2.0"
    },
    "scene" : 0,
    "scenes" : [
        {
            "name" : "Scene",
            "nodes" : [
                0
            ]
        }
    ],
    "nodes" : [
        {
            "mesh" : 0,
            "name" : "bell_x1_mesh",
            "rotation" : [
                0.7071068286895752,
                0,
                0,
                0.7071067094802856
            ]
        }
    ],
    "materials" : [
        {
            "doubleSided" : true,
            "name" : "Default OBJ",
            "normalTexture" : {
                "index" : 0,
                "texCoord" : 0
            },
            "occlusionTexture" : {
                "index" : 1,
                "texCoord" : 0
            },
            "pbrMetallicRoughness" : {
                "baseColorTexture" : {
                    "index" : 2,
                    "texCoord" : 0
                },
                "metallicFactor" : 0,
                "roughnessFactor" : 0.5
            }
        }
    ],
    "meshes" : [
        {
            "name" : "bell_x1_mesh",
            "primitives" : [
                {
                    "attributes" : {
                        "POSITION" : 0,
                        "NORMAL" : 1,
                        "TEXCOORD_0" : 2
                    },
                    "indices" : 3,
                    "material" : 0
                },
                {
                    "attributes" : {
                        "POSITION" : 4,
                        "NORMAL" : 5,
                        "TEXCOORD_0" : 6
                    },
                    "indices" : 7,
                    "material" : 0
                },
                {
                    "attributes" : {
                        "POSITION" : 8,
                        "NORMAL" : 9,
                        "TEXCOORD_0" : 10
                    },
                    "indices" : 11,
                    "material" : 0
                },
                {
                    "attributes" : {
                        "POSITION" : 12,
                        "NORMAL" : 13,
                        "TEXCOORD_0" : 14
                    },
                    "indices" : 15,
                    "material" : 0
                },
                {
                    "attributes" : {
                        "POSITION" : 16,
                        "NORMAL" : 17,
                        "TEXCOORD_0" : 18
                    },
                    "indices" : 19,
                    "material" : 0
                },
                {
                    "attributes" : {
                        "POSITION" : 20,
                        "NORMAL" : 21,
                        "TEXCOORD_0" : 22
                    },
                    "indices" : 23,
                    "material" : 0
                }
            ]
        }
    ],
    "textures" : [
        {
            "source" : 0
        },
        {
            "source" : 1
        },
        {
            "source" : 2
        }
    ],
    "images" : [
        {
            "mimeType" : "image/jpeg",
            "name" : "bell_x1_normal_max",
            "uri" : "bell_x1_normal_max.jpg"
        },
        {
            "mimeType" : "image/jpeg",
            "name" : "bell_x1_occlusion",
            "uri" : "bell_x1_occlusion.jpg"
        },
        {
            "mimeType" : "image/jpeg",
            "name" : "bell_x1_diffuse",
            "uri" : "bell_x1_diffuse.jpg"
        }
    ],
    "accessors" : [
        {
            "bufferView" : 0,
            "componentType" : 5126,
            "count" : 65535,
            "max" : [
                1035.699951171875,
                150,
                798
            ],
            "min" : [
                -877.0999755859375,
                -5311.60009765625,
                -800.2999877929688
            ],
            "type" : "VEC3"
        },
        {
            "bufferView" : 1,
            "componentType" : 5126,
            "count" : 65535,
            "type" : "VEC3"
        },
        {
            "bufferView" : 2,
            "componentType" : 5126,
            "count" : 65535,
            "type" : "VEC2"
        },
        {
            "bufferView" : 3,
            "componentType" : 5123,
            "count" : 75054,
            "type" : "SCALAR"
        },
        {
            "bufferView" : 4,
            "componentType" : 5126,
            "count" : 65535,
            "max" : [
                2481.5,
                4154.39990234375,
                798
            ],
            "min" : [
                -1484.9000244140625,
                -4258.69970703125,
                -1109.9000244140625
            ],
            "type" : "VEC3"
        },
        {
            "bufferView" : 5,
            "componentType" : 5126,
            "count" : 65535,
            "type" : "VEC3"
        },
        {
            "bufferView" : 6,
            "componentType" : 5126,
            "count" : 65535,
            "type" : "VEC2"
        },
        {
            "bufferView" : 7,
            "componentType" : 5123,
            "count" : 72687,
            "type" : "SCALAR"
        },
        {
            "bufferView" : 8,
            "componentType" : 5126,
            "count" : 65533,
            "max" : [
                4105.2998046875,
                4157.60009765625,
                294.6000061035156
            ],
            "min" : [
                -2716.900146484375,
                -5858,
                -2370.300048828125
            ],
            "type" : "VEC3"
        },
        {
            "bufferView" : 9,
            "componentType" : 5126,
            "count" : 65533,
            "type" : "VEC3"
        },
        {
            "bufferView" : 10,
            "componentType" : 5126,
            "count" : 65533,
            "type" : "VEC2"
        },
        {
            "bufferView" : 11,
            "componentType" : 5123,
            "count" : 70305,
            "type" : "SCALAR"
        },
        {
            "bufferView" : 12,
            "componentType" : 5126,
            "count" : 65532,
            "max" : [
                1580.4000244140625,
                4218.2998046875,
                436.6000061035156
            ],
            "min" : [
                -4438.89990234375,
                -6187.60009765625,
                -2399.60009765625
            ],
            "type" : "VEC3"
        },
        {
            "bufferView" : 13,
            "componentType" : 5126,
            "count" : 65532,
            "type" : "VEC3"
        },
        {
            "bufferView" : 14,
            "componentType" : 5126,
            "count" : 65532,
            "type" : "VEC2"
        },
        {
            "bufferView" : 15,
            "componentType" : 5123,
            "count" : 69114,
            "type" : "SCALAR"
        },
        {
            "bufferView" : 16,
            "componentType" : 5126,
            "count" : 9182,
            "max" : [
                4136.89990234375,
                -28.100000381469727,
                20.899999618530273
            ],
            "min" : [
                -4438.89990234375,
                -6185.2001953125,
                -219.60000610351562
            ],
            "type" : "VEC3"
        },
        {
            "bufferView" : 17,
            "componentType" : 5126,
            "count" : 9182,
            "type" : "VEC3"
        },
        {
            "bufferView" : 18,
            "componentType" : 5126,
            "count" : 9182,
            "type" : "VEC2"
        },
        {
            "bufferView" : 19,
            "componentType" : 5123,
            "count" : 9933,
            "type" : "SCALAR"
        },
        {
            "bufferView" : 20,
            "componentType" : 5126,
            "count" : 330,
            "max" : [
                2492.199951171875,
                4150.400390625,
                778.2999877929688
            ],
            "min" : [
                -4432.400390625,
                -4059,
                -2262.2001953125
            ],
            "type" : "VEC3"
        },
        {
            "bufferView" : 21,
            "componentType" : 5126,
            "count" : 330,
            "type" : "VEC3"
        },
        {
            "bufferView" : 22,
            "componentType" : 5126,
            "count" : 330,
            "type" : "VEC2"
        },
        {
            "bufferView" : 23,
            "componentType" : 5123,
            "count" : 411,
            "type" : "SCALAR"
        }
    ],
    "bufferViews" : [
        {
            "buffer" : 0,
            "byteLength" : 786420,
            "byteOffset" : 0
        },
        {
            "buffer" : 0,
            "byteLength" : 786420,
            "byteOffset" : 786420
        },
        {
            "buffer" : 0,
            "byteLength" : 524280,
            "byteOffset" : 1572840
        },
        {
            "buffer" : 0,
            "byteLength" : 150108,
            "byteOffset" : 2097120
        },
        {
            "buffer" : 0,
            "byteLength" : 786420,
            "byteOffset" : 2247228
        },
        {
            "buffer" : 0,
            "byteLength" : 786420,
            "byteOffset" : 3033648
        },
        {
            "buffer" : 0,
            "byteLength" : 524280,
            "byteOffset" : 3820068
        },
        {
            "buffer" : 0,
            "byteLength" : 145374,
            "byteOffset" : 4344348
        },
        {
            "buffer" : 0,
            "byteLength" : 786396,
            "byteOffset" : 4489724
        },
        {
            "buffer" : 0,
            "byteLength" : 786396,
            "byteOffset" : 5276120
        },
        {
            "buffer" : 0,
            "byteLength" : 524264,
            "byteOffset" : 6062516
        },
        {
            "buffer" : 0,
            "byteLength" : 140610,
            "byteOffset" : 6586780
        },
        {
            "buffer" : 0,
            "byteLength" : 786384,
            "byteOffset" : 6727392
        },
        {
            "buffer" : 0,
            "byteLength" : 786384,
            "byteOffset" : 7513776
        },
        {
            "buffer" : 0,
            "byteLength" : 524256,
            "byteOffset" : 8300160
        },
        {
            "buffer" : 0,
            "byteLength" : 138228,
            "byteOffset" : 8824416
        },
        {
            "buffer" : 0,
            "byteLength" : 110184,
            "byteOffset" : 8962644
        },
        {
            "buffer" : 0,
            "byteLength" : 110184,
            "byteOffset" : 9072828
        },
        {
            "buffer" : 0,
            "byteLength" : 73456,
            "byteOffset" : 9183012
        },
        {
            "buffer" : 0,
            "byteLength" : 19866,
            "byteOffset" : 9256468
        },
        {
            "buffer" : 0,
            "byteLength" : 3960,
            "byteOffset" : 9276336
        },
        {
            "buffer" : 0,
            "byteLength" : 3960,
            "byteOffset" : 9280296
        },
        {
            "buffer" : 0,
            "byteLength" : 2640,
            "byteOffset" : 9284256
        },
        {
            "buffer" : 0,
            "byteLength" : 822,
            "byteOffset" : 9286896
        }
    ],
    "buffers" : [
        {
            "byteLength" : 9287720,
            "uri" : "bell_x1_mesh-web_remap.bin"
        }
    ]
}
