{
	"asset":{
		"version":"2.0",
		"generator":"Houdini GLTF 2.0 Exporter"
	},
	"accessors":[
		{
			"bufferView":0,
			"componentType":5123,
			"count":726,
			"type":"SCALAR",
			"min":[0
			],
			"max":[725
			]
		},
		{
			"bufferView":1,
			"componentType":5126,
			"count":726,
			"type":"VEC3",
			"min":[-2.48000002,0.0199999996,-7.53000021
			],
			"max":[2.48000002,0.0200000014,7.53000021
			]
		},
		{
			"bufferView":2,
			"componentType":5126,
			"count":726,
			"type":"VEC2",
			"min":[-7.43999958,-21.5900002
			],
			"max":[7.43999958,23.5900002
			]
		},
		{
			"bufferView":3,
			"componentType":5126,
			"count":726,
			"type":"VEC3",
			"min":[-2.38432296e-09,1,-3.47796925e-09
			],
			"max":[2.38432296e-09,1,3.69572456e-10
			]
		},
		{
			"bufferView":4,
			"componentType":5123,
			"count":6798,
			"type":"SCALAR",
			"min":[0
			],
			"max":[6797
			]
		},
		{
			"bufferView":5,
			"componentType":5126,
			"count":6798,
			"type":"VEC3",
			"min":[-2.54999995,-0.0500000007,-7.55000019
			],
			"max":[2.54999995,2.05000019,7.55000019
			]
		},
		{
			"bufferView":6,
			"componentType":5126,
			"count":6798,
			"type":"VEC2",
			"min":[-22.6500015,-21.6500015
			],
			"max":[22.6500015,23.6500015
			]
		},
		{
			"bufferView":7,
			"componentType":5126,
			"count":6798,
			"type":"VEC3",
			"min":[-1,-1,-1
			],
			"max":[1,1,1
			]
		}
	],
	"buffers":[
		{
			"uri":"chamber1_data.bin",
			"byteLength":255816,
			"name":"main_buffer"
		}
	],
	"bufferViews":[
		{
			"buffer":0,
			"byteLength":1452,
			"target":34963
		},
		{
			"buffer":0,
			"byteOffset":1452,
			"byteLength":8712,
			"target":34962
		},
		{
			"buffer":0,
			"byteOffset":10164,
			"byteLength":5808,
			"target":34962
		},
		{
			"buffer":0,
			"byteOffset":15972,
			"byteLength":8712,
			"target":34962
		},
		{
			"buffer":0,
			"byteOffset":24684,
			"byteLength":13596,
			"target":34963
		},
		{
			"buffer":0,
			"byteOffset":38280,
			"byteLength":81576,
			"target":34962
		},
		{
			"buffer":0,
			"byteOffset":119856,
			"byteLength":54384,
			"target":34962
		},
		{
			"buffer":0,
			"byteOffset":174240,
			"byteLength":81576,
			"target":34962
		}
	],
	"nodes":[
		{
			"name":"chamber_1",
			"mesh":0
		}
	],
	"meshes":[
		{
			"primitives":[
				{
					"attributes":{
						"NORMAL":3,
						"TEXCOORD_0":2,
						"POSITION":1
					},
					"indices":0,
					"material":0
				},
				{
					"attributes":{
						"NORMAL":7,
						"TEXCOORD_0":6,
						"POSITION":5
					},
					"indices":4,
					"material":1
				}
			]
		}
	],
	"materials":[
		{
			"name":"Worn_Concrete_Wall",
			"pbrMetallicRoughness":{
				"metallicFactor":0,
				"baseColorTexture":{
					"index":0
				},
				"metallicRoughnessTexture":{
					"index":1
				}
			},
			"normalTexture":{
				"index":2
			}
		},
		{
			"name":"Concrete_Slab_2x2_M",
			"pbrMetallicRoughness":{
				"metallicFactor":0,
				"baseColorTexture":{
					"index":3
				},
				"metallicRoughnessTexture":{
					"index":4
				}
			},
			"normalTexture":{
				"index":5
			}
		}
	],
	"scenes":[
		{
			"nodes":[0
			]
		}
	],
	"textures":[
		{
			"source":0
		},
		{
			"source":1
		},
		{
			"source":2
		},
		{
			"source":3
		},
		{
			"source":4
		},
		{
			"source":5
		}
	],
	"images":[
		{
			"uri":"uhnlfbvn_4K_Albedo.png",
			"mimeType":"image/png"
		},
		{
			"uri":"uhnlfbvn_4K_Roughness.png",
			"mimeType":"image/png"
		},
		{
			"uri":"uhnlfbvn_4K_Normal.png",
			"mimeType":"image/png"
		},
		{
			"uri":"sdwocfwa_4K_Albedo.png",
			"mimeType":"image/png"
		},
		{
			"uri":"sdwocfwa_4K_Roughness.png",
			"mimeType":"image/png"
		},
		{
			"uri":"sdwocfwa_4K_Normal.png",
			"mimeType":"image/png"
		}
	],
	"scene":0
}
