{
	"asset":{
		"version":"2.0",
		"generator":"Houdini GLTF 2.0 Exporter"
	},
	"accessors":[
		{
			"bufferView":0,
			"componentType":5123,
			"count":540,
			"type":"SCALAR",
			"min":[0
			],
			"max":[539
			]
		},
		{
			"bufferView":1,
			"componentType":5126,
			"count":540,
			"type":"VEC3",
			"min":[-2.67500019,-0.174999997,-6.1794548
			],
			"max":[2.67500019,5,10.18855
			]
		},
		{
			"bufferView":2,
			"componentType":5126,
			"count":540,
			"type":"SCALAR",
			"min":[-1.57079661
			],
			"max":[1.57079637
			]
		},
		{
			"bufferView":3,
			"componentType":5126,
			"count":540,
			"type":"VEC2",
			"min":[0.001953125,0.00323402882
			],
			"max":[0.994204164,0.998046875
			]
		},
		{
			"bufferView":4,
			"componentType":5126,
			"count":540,
			"type":"VEC3",
			"min":[-1,-1,-1
			],
			"max":[1,1,1
			]
		},
		{
			"bufferView":5,
			"componentType":5125,
			"count":540,
			"type":"SCALAR",
			"min":[0
			],
			"max":[0
			]
		},
		{
			"bufferView":6,
			"componentType":5126,
			"count":540,
			"type":"SCALAR",
			"min":[0.649094582
			],
			"max":[0.649094582
			]
		}
	],
	"buffers":[
		{
			"uri":"test_data.bin",
			"byteLength":24840,
			"name":"main_buffer"
		}
	],
	"bufferViews":[
		{
			"buffer":0,
			"byteLength":1080,
			"target":34963
		},
		{
			"buffer":0,
			"byteOffset":1080,
			"byteLength":6480,
			"target":34962
		},
		{
			"buffer":0,
			"byteOffset":7560,
			"byteLength":2160,
			"target":34962
		},
		{
			"buffer":0,
			"byteOffset":9720,
			"byteLength":4320,
			"target":34962
		},
		{
			"buffer":0,
			"byteOffset":14040,
			"byteLength":6480,
			"target":34962
		},
		{
			"buffer":0,
			"byteOffset":20520,
			"byteLength":2160,
			"target":34962
		},
		{
			"buffer":0,
			"byteOffset":22680,
			"byteLength":2160,
			"target":34962
		}
	],
	"nodes":[
		{
			"name":"geo1",
			"mesh":0
		}
	],
	"meshes":[
		{
			"primitives":[
				{
					"attributes":{
						"_coverage":6,
						"_numnonpacked":5,
						"NORMAL":4,
						"TEXCOORD_0":3,
						"_curvature":2,
						"POSITION":1
					},
					"indices":0,
					"material":0
				}
			]
		}
	],
	"materials":[
		{
			"name":"Smooth_Concrete_Wall",
			"pbrMetallicRoughness":{
				"metallicFactor":0,
				"baseColorTexture":{
					"index":0
				},
				"metallicRoughnessTexture":{
					"index":1
				}
			},
			"normalTexture":{
				"index":2
			}
		}
	],
	"scenes":[
		{
			"nodes":[0
			]
		}
	],
	"textures":[
		{
			"source":0
		},
		{
			"source":1
		},
		{
			"source":2
		}
	],
	"images":[
		{
			"uri":"uh4jfd3g_4K_Albedo.jpg",
			"mimeType":"image/jpeg"
		},
		{
			"uri":"uh4jfd3g_4K_Roughness.jpg",
			"mimeType":"image/jpeg"
		},
		{
			"uri":"uh4jfd3g_4K_Normal.jpg",
			"mimeType":"image/jpeg"
		}
	],
	"scene":0
}
