<svg width="432" height="170" viewBox="0 0 432 170" fill="none" xmlns="http://www.w3.org/2000/svg">
<path d="M0.4 39H11.3L14.4 32.55H25.9L26.3 39H36.9L33.05 2.95H19.45L0.4 39ZM24.4 11.2H24.85L25.35 24.4H18.3L24.4 11.2ZM62.8457 11.25C62.6457 11.25 62.3957 11.25 62.1957 11.25C58.8457 11.25 56.3457 12.65 52.7457 16.65L53.7457 11.35H44.3457L38.8957 39H48.8957L51.9957 23.65C55.1457 22.3 58.0457 21.4 60.9457 21L62.8457 11.25ZM75.6371 18.85H83.1871L84.6371 11.35H77.0871L78.2871 5.25H73.0371C71.4371 8.25 68.9871 11.2 63.9371 11.65L62.4871 18.8H65.5371L63.1871 30.3C61.7871 36.7 65.7871 39.55 71.7371 39.55C73.8871 39.55 76.1371 39.2 78.1871 38.75C78.6371 36.25 79.0871 33.7 79.5871 31.25C78.4371 31.5 77.2371 31.75 76.1371 31.75C74.1871 31.75 73.2871 30.6 73.5871 28.85L75.6371 18.85ZM89.9109 3L82.3109 39H108.661L110.411 30.8H94.5109L95.7609 24.9H108.311L110.011 16.9H97.4609L98.6609 11.25H114.761L116.511 3H89.9109ZM128.384 31.95C125.684 31.95 123.534 31.1 123.534 27.75C123.534 22.75 126.034 18.25 131.134 18.25C133.284 18.25 135.684 18.75 137.984 19.45L139.484 11.95C136.684 11.1 134.134 10.75 130.884 10.75C119.684 10.75 113.184 19.15 113.184 29.35C113.184 37.3 119.284 39.6 125.184 39.6C128.434 39.6 131.134 39.25 134.184 38.4L135.684 30.85C133.084 31.55 130.484 31.95 128.384 31.95ZM151.67 20.1C153.42 19.15 155.27 18.45 156.47 18.45C158.17 18.45 158.67 19.6 158.42 20.9L154.77 39H164.87L168.87 19.2C169.87 14.25 167.22 10.75 162.17 10.75C159.17 10.75 155.82 11.8 152.97 13.4C153.82 9.2 154.67 5.05 155.47 0.849999H145.37C142.87 13.55 140.32 26.3 137.87 39H147.87C149.17 32.75 150.42 26.4 151.67 20.1ZM186.812 18.15C189.212 18.15 190.112 19.55 190.112 22C190.012 25.95 187.862 32.2 183.912 32.2C181.612 32.2 180.662 31 180.662 28.65C180.662 24.9 182.612 18.15 186.812 18.15ZM170.362 29.2C170.362 36.2 174.912 39.6 182.462 39.6C192.912 39.6 200.312 32.45 200.312 21.3C200.312 14.3 195.762 10.75 188.162 10.75C177.512 10.75 170.362 18.55 170.362 29.2ZM217.445 8.65H227.745L229.195 1.3H218.895L217.445 8.65ZM217.095 11.35L213.295 30.3C212.195 35.85 214.295 39.3 220.145 39.3C221.595 39.3 224.195 39.15 225.895 38.85L227.095 32.2C223.595 32.25 223.195 30.8 223.695 28.25L227.195 11.35H217.095ZM229.106 31.45L227.456 38.85C229.956 39.35 234.456 39.6 237.106 39.6C245.856 39.6 252.106 36.05 252.106 28.35C252.106 19.95 240.756 22.4 240.756 19.7C240.756 18.7 241.706 17.95 244.756 17.95C247.056 17.95 250.356 18.35 252.106 18.8L253.806 11.65C251.356 11.1 247.756 10.75 245.006 10.75C237.356 10.75 230.306 14 230.306 21.7C230.306 29.85 241.656 27.5 241.656 30C241.656 31.7 239.856 32.3 237.256 32.3C234.656 32.3 231.206 31.9 229.106 31.45ZM296.18 13.05C291.68 11.55 287.23 10.75 283.58 10.75C272.23 10.75 265.48 18.05 265.48 29.75C265.48 36.05 269.33 39.35 273.98 39.35C276.93 39.35 280.08 38.15 282.43 35.85L283.08 39H291.08L296.18 13.05ZM285.08 18.45L282.63 30.3C281.48 31.05 280.13 31.5 278.93 31.5C277.13 31.5 275.83 30.35 275.83 27.75C275.83 22.55 278.28 18.25 283.18 18.25C283.78 18.25 284.43 18.35 285.08 18.45ZM29.9 99L37.45 60.85H27.65L25.45 71.35C23.7 71 22.1 70.75 20.55 70.75C9.7 70.75 4.2 79.8 4.2 89.8C4.2 96.6 8.05 99.5 12.4 99.5C15.4 99.5 18.6 98.2 21.3 95.8L22 99H29.9ZM23.95 78.55L21.55 90.3C20.2 91 18.75 91.45 17.55 91.45C15.65 91.45 14.55 90.3 14.55 87.5C14.75 82.5 16.6 78.25 21.75 78.25C22.45 78.25 23.15 78.4 23.95 78.55ZM40.2477 68.65H50.5477L51.9977 61.3H41.6977L40.2477 68.65ZM39.8977 71.35L36.0977 90.3C34.9977 95.85 37.0977 99.3 42.9477 99.3C44.3977 99.3 46.9977 99.15 48.6977 98.85L49.8977 92.2C46.3977 92.25 45.9977 90.8 46.4977 88.25L49.9977 71.35H39.8977ZM82.6086 73.05C78.0586 71.55 73.6586 70.75 70.1586 70.75C58.5086 70.75 51.7586 78.35 51.7586 89.8C51.7586 96.45 55.7586 99.35 60.3086 99.35C63.2586 99.35 66.4086 98.2 68.9086 95.85L68.7586 97.1C68.2586 101.3 64.8586 102.45 61.1086 102.45C58.0586 102.45 54.3586 101.65 51.9086 100.9L50.4086 108.55C53.7086 109.3 57.4586 109.85 60.9086 109.85C69.2586 109.85 75.9086 107.1 77.7086 98.05L82.6086 73.05ZM71.5086 78.5L69.1586 90.3C67.9086 91.05 66.4586 91.5 65.2086 91.5C63.4086 91.5 62.1086 90.3 62.1086 87.85C62.1086 82.55 64.2586 78.3 69.3586 78.3C70.0586 78.3 70.7586 78.35 71.5086 78.5ZM87.7574 68.65H98.0574L99.5074 61.3H89.2074L87.7574 68.65ZM87.4074 71.35L83.6074 90.3C82.5074 95.85 84.6074 99.3 90.4574 99.3C91.9074 99.3 94.5074 99.15 96.2074 98.85L97.4074 92.2C93.9074 92.25 93.5074 90.8 94.0074 88.25L97.5074 71.35H87.4074ZM113.625 78.85H121.175L122.625 71.35H115.075L116.275 65.25H111.025C109.425 68.25 106.975 71.2 101.925 71.65L100.475 78.8H103.525L101.175 90.3C99.7754 96.7 103.775 99.55 109.725 99.55C111.875 99.55 114.125 99.2 116.175 98.75C116.625 96.25 117.075 93.7 117.575 91.25C116.425 91.5 115.225 91.75 114.125 91.75C112.175 91.75 111.275 90.6 111.575 88.85L113.625 78.85ZM151.649 73.05C147.149 71.55 142.699 70.75 139.049 70.75C127.699 70.75 120.949 78.05 120.949 89.75C120.949 96.05 124.799 99.35 129.449 99.35C132.399 99.35 135.549 98.15 137.899 95.85L138.549 99H146.549L151.649 73.05ZM140.549 78.45L138.099 90.3C136.949 91.05 135.599 91.5 134.399 91.5C132.599 91.5 131.299 90.35 131.299 87.75C131.299 82.55 133.749 78.25 138.649 78.25C139.249 78.25 139.899 78.35 140.549 78.45ZM152.85 89.7C151.7 95.35 153.4 99.35 159.65 99.35C161.1 99.35 164.2 99.2 165.8 99L166.85 92C166.4 92.05 165.95 92.1 165.45 92.1C164 92.1 162.7 91.4 163 89.85L168.75 60.85H158.65L152.85 89.7ZM208.55 80.05C210.45 78.85 212.3 78.5 213 78.5C214.9 78.5 215.05 79.7 214.8 80.9L211.2 99H221.25L225.2 79.25C226.2 74.2 223.75 70.75 218.55 70.75C214.4 70.75 211.2 72.5 208.7 74C207.75 71.6 205.05 70.85 202.35 70.85C199.1 70.85 195.35 72.2 192.55 73.85L192.25 71.35H183.75L178.3 99H188.3L192.05 80.05C194 79 195.3 78.5 196.6 78.5C198.2 78.5 198.6 79.7 198.35 80.9L194.7 99H204.75L208.55 80.05ZM231.059 71.35L227.259 90.5C226.259 95.4 229.209 99.55 234.159 99.55C237.709 99.55 241.409 98 244.409 96.1L244.759 99H252.709L258.159 71.35H248.109L244.309 90.3C242.309 91.3 240.559 91.9 239.309 91.9C238.009 91.9 237.309 90.8 237.559 89.5L241.159 71.35H231.059ZM258.549 91.45L256.899 98.85C259.399 99.35 263.899 99.6 266.549 99.6C275.299 99.6 281.549 96.05 281.549 88.35C281.549 79.95 270.199 82.4 270.199 79.7C270.199 78.7 271.149 77.95 274.199 77.95C276.499 77.95 279.799 78.35 281.549 78.8L283.249 71.65C280.799 71.1 277.199 70.75 274.449 70.75C266.799 70.75 259.749 74 259.749 81.7C259.749 89.85 271.099 87.5 271.099 90C271.099 91.7 269.299 92.3 266.699 92.3C264.099 92.3 260.649 91.9 258.549 91.45ZM308.295 90.15C305.495 91.35 302.695 92.05 299.545 92.05C296.145 92.05 294.145 90.7 294.145 88.3C294.145 88 294.195 87.55 294.295 87.05C296.245 87.6 298.395 87.9 300.395 87.9C306.245 87.9 311.545 85.4 311.545 78.65C311.545 74.5 308.245 70.75 301.195 70.75C289.945 70.75 283.595 79.55 283.595 88.85C283.595 97.3 289.545 99.65 296.845 99.65C300.745 99.65 304.545 98.9 307.445 98.05L308.295 90.15ZM294.895 82.3C295.345 79.7 297.245 77.35 299.995 77.35C301.795 77.35 302.445 78.25 302.445 79.25C302.445 81.2 300.995 82.45 297.395 82.45C296.745 82.45 295.845 82.4 294.895 82.3ZM316.313 71.35L312.513 90.5C311.512 95.4 314.463 99.55 319.413 99.55C322.963 99.55 326.663 98 329.663 96.1L330.013 99H337.963L343.413 71.35H333.363L329.563 90.3C327.563 91.3 325.813 91.9 324.563 91.9C323.263 91.9 322.563 90.8 322.813 89.5L326.413 71.35H316.313ZM373.003 80.05C374.903 78.85 376.753 78.5 377.453 78.5C379.353 78.5 379.503 79.7 379.253 80.9L375.653 99H385.703L389.653 79.25C390.653 74.2 388.203 70.75 383.003 70.75C378.853 70.75 375.653 72.5 373.153 74C372.203 71.6 369.503 70.85 366.803 70.85C363.553 70.85 359.803 72.2 357.003 73.85L356.703 71.35H348.203L342.753 99H352.753L356.503 80.05C358.453 79 359.753 78.5 361.053 78.5C362.653 78.5 363.053 79.7 362.803 80.9L359.153 99H369.203L373.003 80.05ZM28.9 150.15C26.1 151.35 23.3 152.05 20.15 152.05C16.75 152.05 14.75 150.7 14.75 148.3C14.75 148 14.8 147.55 14.9 147.05C16.85 147.6 19 147.9 21 147.9C26.85 147.9 32.15 145.4 32.15 138.65C32.15 134.5 28.85 130.75 21.8 130.75C10.55 130.75 4.2 139.55 4.2 148.85C4.2 157.3 10.15 159.65 17.45 159.65C21.35 159.65 25.15 158.9 28.05 158.05L28.9 150.15ZM15.5 142.3C15.95 139.7 17.85 137.35 20.6 137.35C22.4 137.35 23.05 138.25 23.05 139.25C23.05 141.2 21.6 142.45 18 142.45C17.35 142.45 16.45 142.4 15.5 142.3ZM40.2727 159C40.3227 158.2 40.8227 156.95 42.3227 155.25L45.2227 151.95H44.9227L48.0227 159H59.1227L52.3727 145.65L52.2227 146.25L57.8727 139.95C60.8727 136.65 62.3227 134.2 62.3227 131.35H52.3727C52.3727 132.95 51.9727 134.4 50.5227 136.05L47.6727 139.35L48.1227 139.55L44.4727 131.35H33.7227L40.5727 145L33.8727 152.25C31.1727 155.15 30.5727 157.2 30.5227 159H40.2727ZM66.1719 131.35L58.6219 169.25H68.4219L70.5219 159C72.2219 159.3 74.1219 159.6 75.7219 159.6C86.3219 159.6 91.7719 150.45 91.7719 140.65C91.7719 134.1 88.1219 130.75 83.7719 130.75C80.8219 130.75 77.6219 132 74.6719 134.5L74.0719 131.35H66.1719ZM74.4219 139.95C76.0719 139.15 77.5719 138.8 78.5719 138.8C80.4219 138.8 81.3719 140.1 81.3719 142.6C81.3719 147.85 79.1219 152.1 74.3219 152.1C73.6219 152.1 72.8219 152 72.0219 151.8L74.4219 139.95ZM117.621 150.15C114.821 151.35 112.021 152.05 108.871 152.05C105.471 152.05 103.471 150.7 103.471 148.3C103.471 148 103.521 147.55 103.621 147.05C105.571 147.6 107.721 147.9 109.721 147.9C115.571 147.9 120.871 145.4 120.871 138.65C120.871 134.5 117.571 130.75 110.521 130.75C99.2707 130.75 92.9207 139.55 92.9207 148.85C92.9207 157.3 98.8707 159.65 106.171 159.65C110.071 159.65 113.871 158.9 116.771 158.05L117.621 150.15ZM104.221 142.3C104.671 139.7 106.571 137.35 109.321 137.35C111.121 137.35 111.771 138.25 111.771 139.25C111.771 141.2 110.321 142.45 106.721 142.45C106.071 142.45 105.171 142.4 104.221 142.3ZM144.389 131.25C144.189 131.25 143.939 131.25 143.739 131.25C140.389 131.25 137.889 132.65 134.289 136.65L135.289 131.35H125.889L120.439 159H130.439L133.539 143.65C136.689 142.3 139.589 141.4 142.489 141L144.389 131.25ZM147.23 128.65H157.53L158.98 121.3H148.68L147.23 128.65ZM146.88 131.35L143.08 150.3C141.98 155.85 144.08 159.3 149.93 159.3C151.38 159.3 153.98 159.15 155.68 158.85L156.88 152.2C153.38 152.25 152.98 150.8 153.48 148.25L156.98 131.35H146.88ZM183.441 150.15C180.641 151.35 177.841 152.05 174.691 152.05C171.291 152.05 169.291 150.7 169.291 148.3C169.291 148 169.341 147.55 169.441 147.05C171.391 147.6 173.541 147.9 175.541 147.9C181.391 147.9 186.691 145.4 186.691 138.65C186.691 134.5 183.391 130.75 176.341 130.75C165.091 130.75 158.741 139.55 158.741 148.85C158.741 157.3 164.691 159.65 171.991 159.65C175.891 159.65 179.691 158.9 182.591 158.05L183.441 150.15ZM170.041 142.3C170.491 139.7 172.391 137.35 175.141 137.35C176.941 137.35 177.591 138.25 177.591 139.25C177.591 141.2 176.141 142.45 172.541 142.45C171.891 142.45 170.991 142.4 170.041 142.3ZM200.009 140.05C202.059 139.05 203.809 138.45 205.059 138.45C206.909 138.45 207.059 139.65 206.809 140.85L203.209 159H213.259L217.209 139.25C218.159 134.4 215.659 130.7 210.559 130.7C207.009 130.7 203.659 132.1 200.559 133.7L200.109 131.35H191.709L186.259 159H196.259L200.009 140.05ZM233.951 151.95C231.251 151.95 229.101 151.1 229.101 147.75C229.101 142.75 231.601 138.25 236.701 138.25C238.851 138.25 241.251 138.75 243.551 139.45L245.051 131.95C242.251 131.1 239.701 130.75 236.451 130.75C225.251 130.75 218.751 139.15 218.751 149.35C218.751 157.3 224.851 159.6 230.751 159.6C234.001 159.6 236.701 159.25 239.751 158.4L241.251 150.85C238.651 151.55 236.051 151.95 233.951 151.95ZM268.695 150.15C265.895 151.35 263.095 152.05 259.945 152.05C256.545 152.05 254.545 150.7 254.545 148.3C254.545 148 254.595 147.55 254.695 147.05C256.645 147.6 258.795 147.9 260.795 147.9C266.645 147.9 271.945 145.4 271.945 138.65C271.945 134.5 268.645 130.75 261.595 130.75C250.345 130.75 243.995 139.55 243.995 148.85C243.995 157.3 249.945 159.65 257.245 159.65C261.145 159.65 264.945 158.9 267.845 158.05L268.695 150.15ZM255.295 142.3C255.745 139.7 257.645 137.35 260.395 137.35C262.195 137.35 262.845 138.25 262.845 139.25C262.845 141.2 261.395 142.45 257.795 142.45C257.145 142.45 256.245 142.4 255.295 142.3ZM308.904 120.8C306.204 120.45 303.854 120.25 301.804 120.25C295.154 120.25 291.204 122.5 290.004 128.6L289.454 131.4L285.954 132L284.754 138.6H288.054L281.954 169.25H291.854L298.054 138.65H304.504L305.904 131.35H299.154L299.304 130.4C299.654 128.3 301.304 127.25 303.654 127.25C304.454 127.25 305.904 127.4 307.554 127.65L308.904 120.8ZM320.406 138.15C322.806 138.15 323.706 139.55 323.706 142C323.606 145.95 321.456 152.2 317.506 152.2C315.206 152.2 314.256 151 314.256 148.65C314.256 144.9 316.206 138.15 320.406 138.15ZM303.956 149.2C303.956 156.2 308.506 159.6 316.056 159.6C326.506 159.6 333.906 152.45 333.906 141.3C333.906 134.3 329.356 130.75 321.756 130.75C311.106 130.75 303.956 138.55 303.956 149.2ZM358.109 131.25C357.909 131.25 357.659 131.25 357.459 131.25C354.109 131.25 351.609 132.65 348.009 136.65L349.009 131.35H339.609L334.159 159H344.159L347.259 143.65C350.409 142.3 353.309 141.4 356.209 141L358.109 131.25ZM397.304 133.05C392.804 131.55 388.354 130.75 384.704 130.75C373.354 130.75 366.604 138.05 366.604 149.75C366.604 156.05 370.454 159.35 375.104 159.35C378.054 159.35 381.204 158.15 383.554 155.85L384.204 159H392.204L397.304 133.05ZM386.204 138.45L383.754 150.3C382.604 151.05 381.254 151.5 380.054 151.5C378.254 151.5 376.954 150.35 376.954 147.75C376.954 142.55 379.404 138.25 384.304 138.25C384.904 138.25 385.554 138.35 386.204 138.45ZM398.505 149.7C397.355 155.35 399.055 159.35 405.305 159.35C406.755 159.35 409.855 159.2 411.455 159L412.505 152C412.055 152.05 411.605 152.1 411.105 152.1C409.655 152.1 408.355 151.4 408.655 149.85L414.405 120.85H404.305L398.505 149.7ZM415.302 149.7C414.152 155.35 415.852 159.35 422.102 159.35C423.552 159.35 426.652 159.2 428.252 159L429.302 152C428.852 152.05 428.402 152.1 427.902 152.1C426.452 152.1 425.152 151.4 425.452 149.85L431.202 120.85H421.102L415.302 149.7Z" fill="white"/>
</svg>
