{
	"asset":{
		"version":"2.0",
		"generator":"Houdini GLTF 2.0 Exporter"
	},
	"accessors":[
		{
			"bufferView":0,
			"componentType":5123,
			"count":2334,
			"type":"SCALAR",
			"min":[0
			],
			"max":[2333
			]
		},
		{
			"bufferView":1,
			"componentType":5126,
			"count":2334,
			"type":"VEC3",
			"min":[-17.0300007,-3,-16.0300007
			],
			"max":[9.02999973,4.03000021,16
			]
		},
		{
			"bufferView":2,
			"componentType":5126,
			"count":2334,
			"type":"VEC2",
			"min":[-8.51500034,-7.01500034
			],
			"max":[8.51500034,9.01500034
			]
		},
		{
			"bufferView":3,
			"componentType":5126,
			"count":2334,
			"type":"VEC3",
			"min":[-1,-1,-1
			],
			"max":[1,1,1
			]
		},
		{
			"bufferView":4,
			"componentType":5123,
			"count":168,
			"type":"SCALAR",
			"min":[0
			],
			"max":[167
			]
		},
		{
			"bufferView":5,
			"componentType":5126,
			"count":168,
			"type":"VEC3",
			"min":[-17,-3,-16
			],
			"max":[9,0.0299999993,16
			]
		},
		{
			"bufferView":6,
			"componentType":5126,
			"count":168,
			"type":"VEC2",
			"min":[-2.33333349,-2.16666675
			],
			"max":[2,3.16666675
			]
		},
		{
			"bufferView":7,
			"componentType":5126,
			"count":168,
			"type":"VEC3",
			"min":[-1,-1,-1
			],
			"max":[1,1,1
			]
		}
	],
	"buffers":[
		{
			"uri":"chamber4_data.bin",
			"byteLength":85068,
			"name":"main_buffer"
		}
	],
	"bufferViews":[
		{
			"buffer":0,
			"byteLength":4668,
			"target":34963
		},
		{
			"buffer":0,
			"byteOffset":4668,
			"byteLength":28008,
			"target":34962
		},
		{
			"buffer":0,
			"byteOffset":32676,
			"byteLength":18672,
			"target":34962
		},
		{
			"buffer":0,
			"byteOffset":51348,
			"byteLength":28008,
			"target":34962
		},
		{
			"buffer":0,
			"byteOffset":79356,
			"byteLength":336,
			"target":34963
		},
		{
			"buffer":0,
			"byteOffset":79692,
			"byteLength":2016,
			"target":34962
		},
		{
			"buffer":0,
			"byteOffset":81708,
			"byteLength":1344,
			"target":34962
		},
		{
			"buffer":0,
			"byteOffset":83052,
			"byteLength":2016,
			"target":34962
		}
	],
	"nodes":[
		{
			"name":"chamber4",
			"mesh":0
		}
	],
	"meshes":[
		{
			"primitives":[
				{
					"attributes":{
						"NORMAL":3,
						"TEXCOORD_0":2,
						"POSITION":1
					},
					"indices":0,
					"material":0
				},
				{
					"attributes":{
						"NORMAL":7,
						"TEXCOORD_0":6,
						"POSITION":5
					},
					"indices":4,
					"material":1
				}
			]
		}
	],
	"materials":[
		{
			"name":"Concrete_Slab_2x2_M",
			"pbrMetallicRoughness":{
				"metallicFactor":0,
				"baseColorTexture":{
					"index":0
				},
				"metallicRoughnessTexture":{
					"index":1
				}
			},
			"normalTexture":{
				"index":2
			}
		},
		{
			"name":"Worn_Concrete_Wall",
			"pbrMetallicRoughness":{
				"metallicFactor":0,
				"baseColorTexture":{
					"index":3
				},
				"metallicRoughnessTexture":{
					"index":4
				}
			},
			"normalTexture":{
				"index":5
			}
		}
	],
	"scenes":[
		{
			"nodes":[0
			]
		}
	],
	"textures":[
		{
			"source":0
		},
		{
			"source":1
		},
		{
			"source":2
		},
		{
			"source":3
		},
		{
			"source":4
		},
		{
			"source":5
		}
	],
	"images":[
		{
			"uri":"sdwocfwa_2K_Albedo.png",
			"mimeType":"image/png"
		},
		{
			"uri":"sdwocfwa_2K_Roughness.png",
			"mimeType":"image/png"
		},
		{
			"uri":"sdwocfwa_2K_Normal.png",
			"mimeType":"image/png"
		},
		{
			"uri":"uhnlfbvn_2K_Albedo.png",
			"mimeType":"image/png"
		},
		{
			"uri":"uhnlfbvn_2K_Roughness.png",
			"mimeType":"image/png"
		},
		{
			"uri":"uhnlfbvn_2K_Normal.png",
			"mimeType":"image/png"
		}
	],
	"scene":0
}
