{
	"asset":{
		"version":"2.0",
		"generator":"Houdini GLTF 2.0 Exporter"
	},
	"accessors":[
		{
			"bufferView":0,
			"componentType":5123,
			"count":708,
			"type":"SCALAR",
			"min":[0
			],
			"max":[707
			]
		},
		{
			"bufferView":1,
			"componentType":5126,
			"count":708,
			"type":"VEC3",
			"min":[-12.4799995,0.0199999996,-15.9799995
			],
			"max":[7.48000002,0.0199999996,15.9799995
			]
		},
		{
			"bufferView":2,
			"componentType":5126,
			"count":708,
			"type":"VEC2",
			"min":[-37.4399948,-46.9399986
			],
			"max":[22.4399986,48.9399986
			]
		},
		{
			"bufferView":3,
			"componentType":5126,
			"count":708,
			"type":"VEC3",
			"min":[0,1,0
			],
			"max":[0,1,0
			]
		},
		{
			"bufferView":4,
			"componentType":5123,
			"count":6564,
			"type":"SCALAR",
			"min":[0
			],
			"max":[6563
			]
		},
		{
			"bufferView":5,
			"componentType":5126,
			"count":6564,
			"type":"VEC3",
			"min":[-12.5500002,-0.0500000007,-16.0499992
			],
			"max":[7.55000019,2.05000019,16.0499992
			]
		},
		{
			"bufferView":6,
			"componentType":5126,
			"count":6564,
			"type":"VEC2",
			"min":[-48.1499977,-47.1499977
			],
			"max":[48.1499977,49.1499977
			]
		},
		{
			"bufferView":7,
			"componentType":5126,
			"count":6564,
			"type":"VEC3",
			"min":[-1,-1,-1
			],
			"max":[1,1,1
			]
		}
	],
	"buffers":[
		{
			"uri":"chamber4_data.bin",
			"byteLength":247248,
			"name":"main_buffer"
		}
	],
	"bufferViews":[
		{
			"buffer":0,
			"byteLength":1416,
			"target":34963
		},
		{
			"buffer":0,
			"byteOffset":1416,
			"byteLength":8496,
			"target":34962
		},
		{
			"buffer":0,
			"byteOffset":9912,
			"byteLength":5664,
			"target":34962
		},
		{
			"buffer":0,
			"byteOffset":15576,
			"byteLength":8496,
			"target":34962
		},
		{
			"buffer":0,
			"byteOffset":24072,
			"byteLength":13128,
			"target":34963
		},
		{
			"buffer":0,
			"byteOffset":37200,
			"byteLength":78768,
			"target":34962
		},
		{
			"buffer":0,
			"byteOffset":115968,
			"byteLength":52512,
			"target":34962
		},
		{
			"buffer":0,
			"byteOffset":168480,
			"byteLength":78768,
			"target":34962
		}
	],
	"nodes":[
		{
			"name":"chamber_4",
			"mesh":0
		}
	],
	"meshes":[
		{
			"primitives":[
				{
					"attributes":{
						"NORMAL":3,
						"TEXCOORD_0":2,
						"POSITION":1
					},
					"indices":0,
					"material":0
				},
				{
					"attributes":{
						"NORMAL":7,
						"TEXCOORD_0":6,
						"POSITION":5
					},
					"indices":4,
					"material":1
				}
			]
		}
	],
	"materials":[
		{
			"name":"Worn_Concrete_Wall",
			"pbrMetallicRoughness":{
				"metallicFactor":0,
				"baseColorTexture":{
					"index":0
				},
				"metallicRoughnessTexture":{
					"index":1
				}
			},
			"normalTexture":{
				"index":2
			}
		},
		{
			"name":"Concrete_Slab_2x2_M",
			"pbrMetallicRoughness":{
				"metallicFactor":0,
				"baseColorTexture":{
					"index":3
				},
				"metallicRoughnessTexture":{
					"index":4
				}
			},
			"normalTexture":{
				"index":5
			}
		}
	],
	"scenes":[
		{
			"nodes":[0
			]
		}
	],
	"textures":[
		{
			"source":0
		},
		{
			"source":1
		},
		{
			"source":2
		},
		{
			"source":3
		},
		{
			"source":4
		},
		{
			"source":5
		}
	],
	"images":[
		{
			"uri":"uhnlfbvn_4K_Albedo.png",
			"mimeType":"image/png"
		},
		{
			"uri":"uhnlfbvn_4K_Roughness.png",
			"mimeType":"image/png"
		},
		{
			"uri":"uhnlfbvn_4K_Normal.png",
			"mimeType":"image/png"
		},
		{
			"uri":"sdwocfwa_4K_Albedo.png",
			"mimeType":"image/png"
		},
		{
			"uri":"sdwocfwa_4K_Roughness.png",
			"mimeType":"image/png"
		},
		{
			"uri":"sdwocfwa_4K_Normal.png",
			"mimeType":"image/png"
		}
	],
	"scene":0
}
