{
	"asset":{
		"version":"2.0",
		"generator":"Houdini GLTF 2.0 Exporter"
	},
	"accessors":[
		{
			"bufferView":0,
			"componentType":5123,
			"count":6138,
			"type":"SCALAR",
			"min":[0
			],
			"max":[6137
			]
		},
		{
			"bufferView":1,
			"componentType":5126,
			"count":6138,
			"type":"VEC3",
			"min":[-2.52999997,0,-2.77999997
			],
			"max":[2.52999997,4.03000021,2.75
			]
		},
		{
			"bufferView":2,
			"componentType":5126,
			"count":6138,
			"type":"VEC2",
			"min":[-2.77999997,-3.03000021
			],
			"max":[2.77999997,3.77999997
			]
		},
		{
			"bufferView":3,
			"componentType":5126,
			"count":6138,
			"type":"VEC3",
			"min":[-1,-1,-1
			],
			"max":[1,1,1
			]
		},
		{
			"bufferView":4,
			"componentType":5123,
			"count":1224,
			"type":"SCALAR",
			"min":[0
			],
			"max":[1223
			]
		},
		{
			"bufferView":5,
			"componentType":5126,
			"count":1224,
			"type":"VEC3",
			"min":[-2.5,0,-2.75
			],
			"max":[2.5,0.0299999993,2.75
			]
		},
		{
			"bufferView":6,
			"componentType":5126,
			"count":1224,
			"type":"VEC2",
			"min":[0,-0.0499999523
			],
			"max":[1,1.04999995
			]
		},
		{
			"bufferView":7,
			"componentType":5126,
			"count":1224,
			"type":"VEC3",
			"min":[-1,-1,-1
			],
			"max":[1,1,1
			]
		}
	],
	"buffers":[
		{
			"uri":"chamber2_data.bin",
			"byteLength":250308,
			"name":"main_buffer"
		}
	],
	"bufferViews":[
		{
			"buffer":0,
			"byteLength":12276,
			"target":34963
		},
		{
			"buffer":0,
			"byteOffset":12276,
			"byteLength":73656,
			"target":34962
		},
		{
			"buffer":0,
			"byteOffset":85932,
			"byteLength":49104,
			"target":34962
		},
		{
			"buffer":0,
			"byteOffset":135036,
			"byteLength":73656,
			"target":34962
		},
		{
			"buffer":0,
			"byteOffset":208692,
			"byteLength":2448,
			"target":34963
		},
		{
			"buffer":0,
			"byteOffset":211140,
			"byteLength":14688,
			"target":34962
		},
		{
			"buffer":0,
			"byteOffset":225828,
			"byteLength":9792,
			"target":34962
		},
		{
			"buffer":0,
			"byteOffset":235620,
			"byteLength":14688,
			"target":34962
		}
	],
	"nodes":[
		{
			"name":"chamber2",
			"mesh":0
		}
	],
	"meshes":[
		{
			"primitives":[
				{
					"attributes":{
						"NORMAL":3,
						"TEXCOORD_0":2,
						"POSITION":1
					},
					"indices":0,
					"material":0
				},
				{
					"attributes":{
						"NORMAL":7,
						"TEXCOORD_0":6,
						"POSITION":5
					},
					"indices":4,
					"material":1
				}
			]
		}
	],
	"materials":[
		{
			"name":"Concrete_Slab_2x2_M",
			"pbrMetallicRoughness":{
				"metallicFactor":0,
				"baseColorTexture":{
					"index":0
				},
				"metallicRoughnessTexture":{
					"index":1
				}
			},
			"normalTexture":{
				"index":2
			}
		},
		{
			"name":"Worn_Concrete_Wall",
			"pbrMetallicRoughness":{
				"metallicFactor":0,
				"baseColorTexture":{
					"index":3
				},
				"metallicRoughnessTexture":{
					"index":4
				}
			},
			"normalTexture":{
				"index":5
			}
		}
	],
	"scenes":[
		{
			"nodes":[0
			]
		}
	],
	"textures":[
		{
			"source":0
		},
		{
			"source":1
		},
		{
			"source":2
		},
		{
			"source":3
		},
		{
			"source":4
		},
		{
			"source":5
		}
	],
	"images":[
		{
			"uri":"sdwocfwa_2K_Albedo.png",
			"mimeType":"image/png"
		},
		{
			"uri":"sdwocfwa_2K_Roughness.png",
			"mimeType":"image/png"
		},
		{
			"uri":"sdwocfwa_2K_Normal.png",
			"mimeType":"image/png"
		},
		{
			"uri":"uhnlfbvn_2K_Albedo.png",
			"mimeType":"image/png"
		},
		{
			"uri":"uhnlfbvn_2K_Roughness.png",
			"mimeType":"image/png"
		},
		{
			"uri":"uhnlfbvn_2K_Normal.png",
			"mimeType":"image/png"
		}
	],
	"scene":0
}
