{
  "accessors": [
    {
      "bufferView": 0,
      "componentType": 5126,
      "count": 67375,
      "max": [
        0.47850900888443,
        0.313300997018814,
        0.705054998397827
      ],
      "min": [
        -0.47936600446701,
        -0.313299000263214,
        -0.70501697063446
      ],
      "type": "VEC3"
    },
    {
      "bufferView": 1,
      "componentType": 5126,
      "count": 67375,
      "type": "VEC3"
    },
    {
      "bufferView": 2,
      "componentType": 5126,
      "count": 67375,
      "type": "VEC2"
    },
    {
      "bufferView": 3,
      "componentType": 5125,
      "count": 299976,
      "type": "SCALAR"
    }
  ],
  "asset": {
    "generator": "MeshSmith mesh conversion tool",
    "version": "2.0"
  },
  "bufferViews": [
    {
      "buffer": 0,
      "byteLength": 808500,
      "target": 34962
    },
    {
      "buffer": 0,
      "byteLength": 808500,
      "byteOffset": 808500,
      "target": 34962
    },
    {
      "buffer": 0,
      "byteLength": 539000,
      "byteOffset": 1617000,
      "target": 34962
    },
    {
      "buffer": 0,
      "byteLength": 1199904,
      "byteOffset": 2156000,
      "target": 34963
    }
  ],
  "buffers": [
    {
      "byteLength": 3355904,
      "uri": "USNM_222486-100k-2048.bin"
    }
  ],
  "images": [
    {
      "uri": "USNM_222486-100k-2048-diffuse.jpg"
    },
    {
      "uri": "USNM_222486-100k-2048-occlusion.jpg"
    },
    {
      "uri": "USNM_222486-100k-2048-normals.jpg"
    }
  ],
  "materials": [
    {
      "name": "default",
      "normalTexture": {
        "index": 2
      },
      "occlusionTexture": {
        "index": 1
      },
      "pbrMetallicRoughness": {
        "baseColorTexture": {
          "index": 0
        },
        "metallicFactor": 0.100000001490116,
        "roughnessFactor": 0.800000011920929
      }
    }
  ],
  "meshes": [
    {
      "primitives": [
        {
          "attributes": {
            "NORMAL": 1,
            "POSITION": 0,
            "TEXCOORD_0": 2
          },
          "indices": 3,
          "material": 0,
          "mode": 4
        }
      ]
    }
  ],
  "nodes": [
    {
      "mesh": 0
    }
  ],
  "scene": 0,
  "scenes": [
    {
      "nodes": [
        0
      ]
    }
  ],
  "textures": [
    {
      "source": 0
    },
    {
      "source": 1
    },
    {
      "source": 2
    }
  ]
}