<svg width="25" height="25" viewBox="0 0 25 25" fill="none" xmlns="http://www.w3.org/2000/svg">
<path d="M12.4902 20.7646C17.0703 20.7646 20.7983 17.0391 20.7983 12.4565C20.7983 7.87402 17.0703 4.15088 12.4902 4.15088C7.9101 4.15088 4.18207 7.87646 4.18207 12.4565C4.18207 17.0366 7.9101 20.7646 12.4902 20.7646ZM12.4902 22.6104C6.88226 22.6104 2.33636 18.0645 2.33636 12.4565C2.33636 6.84863 6.88226 2.30273 12.4902 2.30273C18.0981 2.30273 22.644 6.84863 22.644 12.4565C22.644 18.0645 18.0981 22.6104 12.4902 22.6104Z" fill="white"/>
<path d="M12.4902 20.7646C13.7768 20.7646 15.7202 17.4517 15.7202 12.4565C15.7202 7.46142 13.7768 4.15088 12.4902 4.15088C11.2036 4.15088 9.26019 7.46387 9.26019 12.4565C9.26019 17.4492 11.2036 20.7646 12.4902 20.7646ZM12.4902 22.6104C9.68744 22.6104 7.41449 18.0645 7.41449 12.4565C7.41449 6.84863 9.68744 2.30273 12.4902 2.30273C15.2929 2.30273 17.5659 6.84863 17.5659 12.4565C17.5659 18.0645 15.2929 22.6104 12.4902 22.6104Z" fill="white"/>
<path d="M3.25928 16.1504H21.7212V14.3047H3.25928V16.1504ZM3.25928 10.6108H21.7212V8.76514H3.25928V10.6108Z" fill="white"/>
</svg>
