{
    "asset" : {
        "generator" : "Khronos glTF Blender I/O v1.5.17",
        "version" : "2.0"
    },
    "scene" : 0,
    "scenes" : [
        {
            "name" : "Scene",
            "nodes" : [
                0,
                1,
                2,
                3
            ]
        }
    ],
    "nodes" : [
        {
            "mesh" : 0,
            "name" : "Suit_SD2_Piece1",
            "rotation" : [
                0.7071068286895752,
                0,
                0,
                0.7071067094802856
            ],
            "scale" : [
                0.009999990463256836,
                0.009999990463256836,
                0.009999990463256836
            ]
        },
        {
            "mesh" : 1,
            "name" : "Suit_SD2_Piece2_Suit_SD2_Piece2.001",
            "rotation" : [
                0.7071068286895752,
                0,
                0,
                0.7071067094802856
            ],
            "scale" : [
                0.009999999776482582,
                0.009999999776482582,
                0.009999999776482582
            ]
        },
        {
            "mesh" : 2,
            "name" : "Suit_SD2_Piece3",
            "rotation" : [
                0.7071068286895752,
                0,
                0,
                0.7071067094802856
            ],
            "scale" : [
                0.009999990463256836,
                0.009999990463256836,
                0.009999990463256836
            ]
        },
        {
            "mesh" : 3,
            "name" : "hard_surface_decimated_HardSurface.002",
            "rotation" : [
                0.7071068286895752,
                0,
                0,
                0.7071067094802856
            ],
            "scale" : [
                0.009999990463256836,
                0.009999990463256836,
                0.009999990463256836
            ]
        }
    ],
    "materials" : [
        {
            "doubleSided" : true,
            "name" : "Default_OBJ",
            "pbrMetallicRoughness" : {
                "baseColorTexture" : {
                    "index" : 0
                },
                "metallicFactor" : 0,
                "roughnessFactor" : 0.5
            }
        },
        {
            "doubleSided" : true,
            "name" : "Material.006",
            "pbrMetallicRoughness" : {
                "baseColorTexture" : {
                    "index" : 1
                },
                "metallicFactor" : 0,
                "roughnessFactor" : 0.5
            }
        },
        {
            "doubleSided" : true,
            "name" : "Material.007",
            "pbrMetallicRoughness" : {
                "baseColorTexture" : {
                    "index" : 2
                },
                "metallicFactor" : 0,
                "roughnessFactor" : 0.5
            }
        },
        {
            "doubleSided" : true,
            "name" : "hard_surfaces-color_baked.001",
            "pbrMetallicRoughness" : {
                "baseColorTexture" : {
                    "index" : 3
                },
                "metallicFactor" : 0,
                "roughnessFactor" : 0.5
            }
        }
    ],
    "meshes" : [
        {
            "name" : "Suit_SD2_Piece1",
            "primitives" : [
                {
                    "attributes" : {
                        "POSITION" : 0,
                        "NORMAL" : 1,
                        "TEXCOORD_0" : 2
                    },
                    "indices" : 3,
                    "material" : 0
                }
            ]
        },
        {
            "name" : "Suit_SD2_Piece2_Suit_SD2_Piece2.001",
            "primitives" : [
                {
                    "attributes" : {
                        "POSITION" : 4,
                        "NORMAL" : 5,
                        "TEXCOORD_0" : 6
                    },
                    "indices" : 7,
                    "material" : 1
                }
            ]
        },
        {
            "name" : "Suit_SD2_Piece3",
            "primitives" : [
                {
                    "attributes" : {
                        "POSITION" : 8,
                        "NORMAL" : 9,
                        "TEXCOORD_0" : 10
                    },
                    "indices" : 11,
                    "material" : 2
                }
            ]
        },
        {
            "name" : "hard_surface_decimated_HardSurface.002",
            "primitives" : [
                {
                    "attributes" : {
                        "POSITION" : 12,
                        "NORMAL" : 13,
                        "TEXCOORD_0" : 14
                    },
                    "indices" : 15,
                    "material" : 3
                }
            ]
        }
    ],
    "textures" : [
        {
            "sampler" : 0,
            "source" : 0
        },
        {
            "sampler" : 0,
            "source" : 1
        },
        {
            "sampler" : 0,
            "source" : 2
        },
        {
            "sampler" : 0,
            "source" : 3
        }
    ],
    "images" : [
        {
            "mimeType" : "image/jpeg",
            "name" : "piece1_basecolor",
            "uri" : "armstrongtexture/piece1_basecolor.jpg"
        },
        {
            "mimeType" : "image/jpeg",
            "name" : "piece2_basecolor",
            "uri" : "armstrongtexture/piece2_basecolor.jpg"
        },
        {
            "mimeType" : "image/jpeg",
            "name" : "piece3_basecolor",
            "uri" : "armstrongtexture/piece3_basecolor.jpg"
        },
        {
            "mimeType" : "image/jpeg",
            "name" : "hard_surf_base_color",
            "uri" : "armstrongtexture/hard_surf_base_color.jpg"
        }
    ],
    "accessors" : [
        {
            "bufferView" : 0,
            "componentType" : 5126,
            "count" : 85490,
            "max" : [
                391.91070556640625,
                124.6010971069336,
                4.895299911499023
            ],
            "min" : [
                6.943099021911621,
                -212.7917022705078,
                -1508.4012451171875
            ],
            "type" : "VEC3"
        },
        {
            "bufferView" : 1,
            "componentType" : 5126,
            "count" : 85490,
            "type" : "VEC3"
        },
        {
            "bufferView" : 2,
            "componentType" : 5126,
            "count" : 85490,
            "type" : "VEC2"
        },
        {
            "bufferView" : 3,
            "componentType" : 5125,
            "count" : 495036,
            "type" : "SCALAR"
        },
        {
            "bufferView" : 4,
            "componentType" : 5126,
            "count" : 73097,
            "max" : [
                273.61981201171875,
                126.42359924316406,
                3.88700008392334
            ],
            "min" : [
                -362.6961975097656,
                -220.63510131835938,
                -1530.37744140625
            ],
            "type" : "VEC3"
        },
        {
            "bufferView" : 5,
            "componentType" : 5126,
            "count" : 73097,
            "type" : "VEC3"
        },
        {
            "bufferView" : 6,
            "componentType" : 5126,
            "count" : 73097,
            "type" : "VEC2"
        },
        {
            "bufferView" : 7,
            "componentType" : 5125,
            "count" : 424872,
            "type" : "SCALAR"
        },
        {
            "bufferView" : 8,
            "componentType" : 5126,
            "count" : 68305,
            "max" : [
                241.0780029296875,
                254.2335968017578,
                -736.2045288085938
            ],
            "min" : [
                -261.4201965332031,
                -219.50840759277344,
                -1845.1011962890625
            ],
            "type" : "VEC3"
        },
        {
            "bufferView" : 9,
            "componentType" : 5126,
            "count" : 68305,
            "type" : "VEC3"
        },
        {
            "bufferView" : 10,
            "componentType" : 5126,
            "count" : 68305,
            "type" : "VEC2"
        },
        {
            "bufferView" : 11,
            "componentType" : 5125,
            "count" : 382881,
            "type" : "SCALAR"
        },
        {
            "bufferView" : 12,
            "componentType" : 5126,
            "count" : 112323,
            "max" : [
                242.3553466796875,
                128.07080078125,
                -609.4638061523438
            ],
            "min" : [
                -253.3255615234375,
                -198.8245086669922,
                -1310.7913818359375
            ],
            "type" : "VEC3"
        },
        {
            "bufferView" : 13,
            "componentType" : 5126,
            "count" : 112323,
            "type" : "VEC3"
        },
        {
            "bufferView" : 14,
            "componentType" : 5126,
            "count" : 112323,
            "type" : "VEC2"
        },
        {
            "bufferView" : 15,
            "componentType" : 5125,
            "count" : 126930,
            "type" : "SCALAR"
        }
    ],
    "bufferViews" : [
        {
            "buffer" : 0,
            "byteLength" : 1025880,
            "byteOffset" : 0
        },
        {
            "buffer" : 0,
            "byteLength" : 1025880,
            "byteOffset" : 1025880
        },
        {
            "buffer" : 0,
            "byteLength" : 683920,
            "byteOffset" : 2051760
        },
        {
            "buffer" : 0,
            "byteLength" : 1980144,
            "byteOffset" : 2735680
        },
        {
            "buffer" : 0,
            "byteLength" : 877164,
            "byteOffset" : 4715824
        },
        {
            "buffer" : 0,
            "byteLength" : 877164,
            "byteOffset" : 5592988
        },
        {
            "buffer" : 0,
            "byteLength" : 584776,
            "byteOffset" : 6470152
        },
        {
            "buffer" : 0,
            "byteLength" : 1699488,
            "byteOffset" : 7054928
        },
        {
            "buffer" : 0,
            "byteLength" : 819660,
            "byteOffset" : 8754416
        },
        {
            "buffer" : 0,
            "byteLength" : 819660,
            "byteOffset" : 9574076
        },
        {
            "buffer" : 0,
            "byteLength" : 546440,
            "byteOffset" : 10393736
        },
        {
            "buffer" : 0,
            "byteLength" : 1531524,
            "byteOffset" : 10940176
        },
        {
            "buffer" : 0,
            "byteLength" : 1347876,
            "byteOffset" : 12471700
        },
        {
            "buffer" : 0,
            "byteLength" : 1347876,
            "byteOffset" : 13819576
        },
        {
            "buffer" : 0,
            "byteLength" : 898584,
            "byteOffset" : 15167452
        },
        {
            "buffer" : 0,
            "byteLength" : 507720,
            "byteOffset" : 16066036
        }
    ],
    "samplers" : [
        {
            "magFilter" : 9729,
            "minFilter" : 9987
        }
    ],
    "buffers" : [
        {
            "byteLength" : 16573756,
            "uri" : "armstrong.bin"
        }
    ]
}
