<svg width="97" height="20" viewBox="0 0 97 20" fill="none" xmlns="http://www.w3.org/2000/svg">
<path d="M0.272 19H5.504L6.992 15.904H12.512L12.704 19H17.792L15.944 1.696H9.416L0.272 19ZM11.792 5.656H12.008L12.248 11.992H8.864L11.792 5.656ZM30.2459 5.68C30.1499 5.68 30.0299 5.68 29.9339 5.68C28.3259 5.68 27.1259 6.352 25.3979 8.272L25.8779 5.728H21.3659L18.7499 19H23.5499L25.0379 11.632C26.5499 10.984 27.9419 10.552 29.3339 10.36L30.2459 5.68ZM36.3858 9.328H40.0098L40.7058 5.728H37.0818L37.6578 2.8H35.1378C34.3698 4.24 33.1938 5.656 30.7698 5.872L30.0738 9.304H31.5378L30.4098 14.824C29.7378 17.896 31.6578 19.264 34.5138 19.264C35.5458 19.264 36.6258 19.096 37.6098 18.88C37.8258 17.68 38.0418 16.456 38.2818 15.28C37.7298 15.4 37.1538 15.52 36.6258 15.52C35.6898 15.52 35.2578 14.968 35.4018 14.128L36.3858 9.328ZM43.2373 1.72L39.5892 19H52.2373L53.0773 15.064H45.4453L46.0453 12.232H52.0693L52.8853 8.392H46.8613L47.4373 5.68H55.1653L56.0053 1.72H43.2373ZM61.7045 15.616C60.4085 15.616 59.3765 15.208 59.3765 13.6C59.3765 11.2 60.5765 9.04 63.0245 9.04C64.0565 9.04 65.2085 9.28 66.3125 9.616L67.0325 6.016C65.6885 5.608 64.4645 5.44 62.9045 5.44C57.5285 5.44 54.4085 9.472 54.4085 14.368C54.4085 18.184 57.3365 19.288 60.1685 19.288C61.7285 19.288 63.0245 19.12 64.4885 18.712L65.2085 15.088C63.9605 15.424 62.7125 15.616 61.7045 15.616ZM72.8818 9.928C73.7218 9.472 74.6098 9.136 75.1858 9.136C76.0018 9.136 76.2418 9.688 76.1218 10.312L74.3698 19H79.2178L81.1378 9.496C81.6178 7.12 80.3458 5.44 77.9218 5.44C76.4818 5.44 74.8738 5.944 73.5058 6.712C73.9138 4.696 74.3218 2.704 74.7058 0.688H69.8578C68.6578 6.784 67.4338 12.904 66.2577 19H71.0578C71.6818 16 72.2818 12.952 72.8818 9.928ZM89.7498 8.992C90.9018 8.992 91.3338 9.664 91.3338 10.84C91.2858 12.736 90.2538 15.736 88.3578 15.736C87.2538 15.736 86.7978 15.16 86.7978 14.032C86.7978 12.232 87.7338 8.992 89.7498 8.992ZM81.8538 14.296C81.8538 17.656 84.0378 19.288 87.6618 19.288C92.6778 19.288 96.2298 15.856 96.2298 10.504C96.2298 7.144 94.0458 5.44 90.3978 5.44C85.2858 5.44 81.8538 9.184 81.8538 14.296Z" fill="white"/>
</svg>
