{
  "accessors": [
    {
      "bufferView": 0,
      "componentType": 5126,
      "count": 77408,
      "max": [
        0.105287000536919,
        0.211812704801559,
        0.105448000133038
      ],
      "min": [
        -0.105273000895977,
        -0.211806699633598,
        -0.105456002056599
      ],
      "type": "VEC3"
    },
    {
      "bufferView": 1,
      "componentType": 5126,
      "count": 77408,
      "type": "VEC3"
    },
    {
      "bufferView": 2,
      "componentType": 5126,
      "count": 77408,
      "type": "VEC2"
    },
    {
      "bufferView": 3,
      "componentType": 5125,
      "count": 450000,
      "type": "SCALAR"
    }
  ],
  "asset": {
    "generator": "MeshSmith mesh conversion tool",
    "version": "2.0"
  },
  "bufferViews": [
    {
      "buffer": 0,
      "byteLength": 928896,
      "target": 34962
    },
    {
      "buffer": 0,
      "byteLength": 928896,
      "byteOffset": 928896,
      "target": 34962
    },
    {
      "buffer": 0,
      "byteLength": 619264,
      "byteOffset": 1857792,
      "target": 34962
    },
    {
      "buffer": 0,
      "byteLength": 1800000,
      "byteOffset": 2477056,
      "target": 34963
    }
  ],
  "buffers": [
    {
      "byteLength": 4277056,
      "uri": "f1980_193-150k-4096.bin"
    }
  ],
  "images": [
    {
      "uri": "f1980_193-150k-4096-diffuse.jpg"
    },
    {
      "uri": "f1980_193-150k-4096-occlusion.jpg"
    },
    {
      "uri": "f1980_193-150k-4096-normals.jpg"
    }
  ],
  "materials": [
    {
      "name": "default",
      "normalTexture": {
        "index": 2
      },
      "occlusionTexture": {
        "index": 1
      },
      "pbrMetallicRoughness": {
        "baseColorTexture": {
          "index": 0
        },
        "metallicFactor": 0.100000001490116,
        "roughnessFactor": 0.800000011920929
      }
    }
  ],
  "meshes": [
    {
      "primitives": [
        {
          "attributes": {
            "NORMAL": 1,
            "POSITION": 0,
            "TEXCOORD_0": 2
          },
          "indices": 3,
          "material": 0,
          "mode": 4
        }
      ]
    }
  ],
  "nodes": [
    {
      "mesh": 0
    }
  ],
  "scene": 0,
  "scenes": [
    {
      "nodes": [
        0
      ]
    }
  ],
  "textures": [
    {
      "source": 0
    },
    {
      "source": 1
    },
    {
      "source": 2
    }
  ]
}