<svg width="245" height="77" viewBox="0 0 245 77" fill="none" xmlns="http://www.w3.org/2000/svg">
<path d="M3.18 62H16.26L19.98 54.26H33.78L34.26 62H46.98L42.36 18.74H26.04L3.18 62ZM31.98 28.64H32.52L33.12 44.48H24.66L31.98 28.64ZM78.1148 28.7C77.8748 28.7 77.5748 28.7 77.3348 28.7C73.3148 28.7 70.3148 30.38 65.9948 35.18L67.1948 28.82H55.9148L49.3748 62H61.3748L65.0948 43.58C68.8748 41.96 72.3548 40.88 75.8348 40.4L78.1148 28.7ZM93.4645 37.82H102.525L104.265 28.82H95.2045L96.6445 21.5H90.3445C88.4245 25.1 85.4845 28.64 79.4245 29.18L77.6845 37.76H81.3445L78.5245 51.56C76.8445 59.24 81.6445 62.66 88.7845 62.66C91.3645 62.66 94.0645 62.24 96.5245 61.7C97.0645 58.7 97.6045 55.64 98.2045 52.7C96.8245 53 95.3845 53.3 94.0645 53.3C91.7245 53.3 90.6445 51.92 91.0045 49.82L93.4645 37.82ZM110.593 18.8L101.473 62H133.093L135.193 52.16H116.113L117.613 45.08H132.673L134.713 35.48H119.653L121.093 28.7H140.413L142.513 18.8H110.593ZM156.761 53.54C153.521 53.54 150.941 52.52 150.941 48.5C150.941 42.5 153.941 37.1 160.061 37.1C162.641 37.1 165.521 37.7 168.281 38.54L170.081 29.54C166.721 28.52 163.661 28.1 159.761 28.1C146.321 28.1 138.521 38.18 138.521 50.42C138.521 59.96 145.841 62.72 152.921 62.72C156.821 62.72 160.061 62.3 163.721 61.28L165.521 52.22C162.401 53.06 159.281 53.54 156.761 53.54ZM184.704 39.32C186.804 38.18 189.024 37.34 190.464 37.34C192.504 37.34 193.104 38.72 192.804 40.28L188.424 62H200.544L205.344 38.24C206.544 32.3 203.364 28.1 197.304 28.1C193.704 28.1 189.684 29.36 186.264 31.28C187.284 26.24 188.304 21.26 189.264 16.22H177.144C174.144 31.46 171.084 46.76 168.144 62H180.144C181.704 54.5 183.204 46.88 184.704 39.32ZM226.875 36.98C229.755 36.98 230.835 38.66 230.835 41.6C230.715 46.34 228.135 53.84 223.395 53.84C220.635 53.84 219.495 52.4 219.495 49.58C219.495 45.08 221.835 36.98 226.875 36.98ZM207.135 50.24C207.135 58.64 212.595 62.72 221.655 62.72C234.195 62.72 243.075 54.14 243.075 40.76C243.075 32.36 237.615 28.1 228.495 28.1C215.715 28.1 207.135 37.46 207.135 50.24Z" fill="#50B546"/>
<path d="M0.68 57H13.76L17.48 49.26H31.28L31.76 57H44.48L39.86 13.74H23.54L0.68 57ZM29.48 23.64H30.02L30.62 39.48H22.16L29.48 23.64ZM75.6148 23.7C75.3748 23.7 75.0748 23.7 74.8348 23.7C70.8148 23.7 67.8148 25.38 63.4948 30.18L64.6948 23.82H53.4148L46.8748 57H58.8748L62.5948 38.58C66.3748 36.96 69.8548 35.88 73.3348 35.4L75.6148 23.7ZM90.9645 32.82H100.025L101.765 23.82H92.7045L94.1445 16.5H87.8445C85.9245 20.1 82.9845 23.64 76.9245 24.18L75.1845 32.76H78.8445L76.0245 46.56C74.3445 54.24 79.1445 57.66 86.2845 57.66C88.8645 57.66 91.5645 57.24 94.0245 56.7C94.5645 53.7 95.1045 50.64 95.7045 47.7C94.3245 48 92.8845 48.3 91.5645 48.3C89.2245 48.3 88.1445 46.92 88.5045 44.82L90.9645 32.82ZM108.093 13.8L98.9731 57H130.593L132.693 47.16H113.613L115.113 40.08H130.173L132.213 30.48H117.153L118.593 23.7H137.913L140.013 13.8H108.093ZM154.261 48.54C151.021 48.54 148.441 47.52 148.441 43.5C148.441 37.5 151.441 32.1 157.561 32.1C160.141 32.1 163.021 32.7 165.781 33.54L167.581 24.54C164.221 23.52 161.161 23.1 157.261 23.1C143.821 23.1 136.021 33.18 136.021 45.42C136.021 54.96 143.341 57.72 150.421 57.72C154.321 57.72 157.561 57.3 161.221 56.28L163.021 47.22C159.901 48.06 156.781 48.54 154.261 48.54ZM182.204 34.32C184.304 33.18 186.524 32.34 187.964 32.34C190.004 32.34 190.604 33.72 190.304 35.28L185.924 57H198.044L202.844 33.24C204.044 27.3 200.864 23.1 194.804 23.1C191.204 23.1 187.184 24.36 183.764 26.28C184.784 21.24 185.804 16.26 186.764 11.22H174.644C171.644 26.46 168.584 41.76 165.644 57H177.644C179.204 49.5 180.704 41.88 182.204 34.32ZM224.375 31.98C227.255 31.98 228.335 33.66 228.335 36.6C228.215 41.34 225.635 48.84 220.895 48.84C218.135 48.84 216.995 47.4 216.995 44.58C216.995 40.08 219.335 31.98 224.375 31.98ZM204.635 45.24C204.635 53.64 210.095 57.72 219.155 57.72C231.695 57.72 240.575 49.14 240.575 35.76C240.575 27.36 235.115 23.1 225.995 23.1C213.215 23.1 204.635 32.46 204.635 45.24Z" fill="white"/>
</svg>
