<svg width="446" height="199" viewBox="0 0 446 199" fill="none" xmlns="http://www.w3.org/2000/svg">
<path d="M2.06162 55H12.9616L16.0616 48.55H27.5616L27.9616 55H38.5616L34.7116 18.95H21.1116L2.06162 55ZM26.0616 27.2H26.5116L27.0116 40.4H19.9616L26.0616 27.2ZM64.5073 27.25C64.3073 27.25 64.0573 27.25 63.8573 27.25C60.5073 27.25 58.0073 28.65 54.4073 32.65L55.4073 27.35H46.0073L40.5573 55H50.5573L53.6573 39.65C56.8073 38.3 59.7073 37.4 62.6073 37L64.5073 27.25ZM77.2987 34.85H84.8487L86.2987 27.35H78.7487L79.9487 21.25H74.6987C73.0987 24.25 70.6487 27.2 65.5987 27.65L64.1487 34.8H67.1987L64.8487 46.3C63.4487 52.7 67.4487 55.55 73.3987 55.55C75.5487 55.55 77.7987 55.2 79.8487 54.75C80.2987 52.25 80.7487 49.7 81.2487 47.25C80.0987 47.5 78.8987 47.75 77.7987 47.75C75.8487 47.75 74.9487 46.6 75.2487 44.85L77.2987 34.85ZM91.5726 19L83.9726 55H110.323L112.073 46.8H96.1726L97.4226 40.9H109.973L111.673 32.9H99.1226L100.323 27.25H116.423L118.173 19H91.5726ZM130.046 47.95C127.346 47.95 125.196 47.1 125.196 43.75C125.196 38.75 127.696 34.25 132.796 34.25C134.946 34.25 137.346 34.75 139.646 35.45L141.146 27.95C138.346 27.1 135.796 26.75 132.546 26.75C121.346 26.75 114.846 35.15 114.846 45.35C114.846 53.3 120.946 55.6 126.846 55.6C130.096 55.6 132.796 55.25 135.846 54.4L137.346 46.85C134.746 47.55 132.146 47.95 130.046 47.95ZM153.332 36.1C155.082 35.15 156.932 34.45 158.132 34.45C159.832 34.45 160.332 35.6 160.082 36.9L156.432 55H166.532L170.532 35.2C171.532 30.25 168.882 26.75 163.832 26.75C160.832 26.75 157.482 27.8 154.632 29.4C155.482 25.2 156.332 21.05 157.132 16.85H147.032C144.532 29.55 141.982 42.3 139.532 55H149.532C150.832 48.75 152.082 42.4 153.332 36.1ZM188.474 34.15C190.874 34.15 191.774 35.55 191.774 38C191.674 41.95 189.524 48.2 185.574 48.2C183.274 48.2 182.324 47 182.324 44.65C182.324 40.9 184.274 34.15 188.474 34.15ZM172.024 45.2C172.024 52.2 176.574 55.6 184.124 55.6C194.574 55.6 201.974 48.45 201.974 37.3C201.974 30.3 197.424 26.75 189.824 26.75C179.174 26.75 172.024 34.55 172.024 45.2ZM219.107 24.65H229.407L230.857 17.3H220.557L219.107 24.65ZM218.757 27.35L214.957 46.3C213.857 51.85 215.957 55.3 221.807 55.3C223.257 55.3 225.857 55.15 227.557 54.85L228.757 48.2C225.257 48.25 224.857 46.8 225.357 44.25L228.857 27.35H218.757ZM230.767 47.45L229.117 54.85C231.617 55.35 236.117 55.6 238.767 55.6C247.517 55.6 253.767 52.05 253.767 44.35C253.767 35.95 242.417 38.4 242.417 35.7C242.417 34.7 243.367 33.95 246.417 33.95C248.717 33.95 252.017 34.35 253.767 34.8L255.467 27.65C253.017 27.1 249.417 26.75 246.667 26.75C239.017 26.75 231.967 30 231.967 37.7C231.967 45.85 243.317 43.5 243.317 46C243.317 47.7 241.517 48.3 238.917 48.3C236.317 48.3 232.867 47.9 230.767 47.45ZM297.842 29.05C293.342 27.55 288.892 26.75 285.242 26.75C273.892 26.75 267.142 34.05 267.142 45.75C267.142 52.05 270.992 55.35 275.642 55.35C278.592 55.35 281.742 54.15 284.092 51.85L284.742 55H292.742L297.842 29.05ZM286.742 34.45L284.292 46.3C283.142 47.05 281.792 47.5 280.592 47.5C278.792 47.5 277.492 46.35 277.492 43.75C277.492 38.55 279.942 34.25 284.842 34.25C285.442 34.25 286.092 34.35 286.742 34.45ZM31.5616 115L39.1116 76.85H29.3116L27.1116 87.35C25.3616 87 23.7616 86.75 22.2116 86.75C11.3616 86.75 5.86162 95.8 5.86162 105.8C5.86162 112.6 9.71162 115.5 14.0616 115.5C17.0616 115.5 20.2616 114.2 22.9616 111.8L23.6616 115H31.5616ZM25.6116 94.55L23.2116 106.3C21.8616 107 20.4116 107.45 19.2116 107.45C17.3116 107.45 16.2116 106.3 16.2116 103.5C16.4116 98.5 18.2616 94.25 23.4116 94.25C24.1116 94.25 24.8116 94.4 25.6116 94.55ZM41.9093 84.65H52.2093L53.6593 77.3H43.3593L41.9093 84.65ZM41.5593 87.35L37.7593 106.3C36.6593 111.85 38.7593 115.3 44.6093 115.3C46.0593 115.3 48.6593 115.15 50.3593 114.85L51.5593 108.2C48.0593 108.25 47.6593 106.8 48.1593 104.25L51.6593 87.35H41.5593ZM84.2702 89.05C79.7202 87.55 75.3202 86.75 71.8202 86.75C60.1702 86.75 53.4202 94.35 53.4202 105.8C53.4202 112.45 57.4202 115.35 61.9702 115.35C64.9202 115.35 68.0702 114.2 70.5702 111.85L70.4202 113.1C69.9202 117.3 66.5202 118.45 62.7702 118.45C59.7202 118.45 56.0202 117.65 53.5702 116.9L52.0702 124.55C55.3702 125.3 59.1202 125.85 62.5702 125.85C70.9202 125.85 77.5702 123.1 79.3702 114.05L84.2702 89.05ZM73.1702 94.5L70.8202 106.3C69.5702 107.05 68.1202 107.5 66.8702 107.5C65.0702 107.5 63.7702 106.3 63.7702 103.85C63.7702 98.55 65.9202 94.3 71.0202 94.3C71.7202 94.3 72.4202 94.35 73.1702 94.5ZM89.419 84.65H99.719L101.169 77.3H90.869L89.419 84.65ZM89.069 87.35L85.269 106.3C84.169 111.85 86.269 115.3 92.119 115.3C93.569 115.3 96.169 115.15 97.869 114.85L99.069 108.2C95.569 108.25 95.169 106.8 95.669 104.25L99.169 87.35H89.069ZM115.287 94.85H122.837L124.287 87.35H116.737L117.937 81.25H112.687C111.087 84.25 108.637 87.2 103.587 87.65L102.137 94.8H105.187L102.837 106.3C101.437 112.7 105.437 115.55 111.387 115.55C113.537 115.55 115.787 115.2 117.837 114.75C118.287 112.25 118.737 109.7 119.237 107.25C118.087 107.5 116.887 107.75 115.787 107.75C113.837 107.75 112.937 106.6 113.237 104.85L115.287 94.85ZM153.311 89.05C148.811 87.55 144.361 86.75 140.711 86.75C129.361 86.75 122.611 94.05 122.611 105.75C122.611 112.05 126.461 115.35 131.111 115.35C134.061 115.35 137.211 114.15 139.561 111.85L140.211 115H148.211L153.311 89.05ZM142.211 94.45L139.761 106.3C138.611 107.05 137.261 107.5 136.061 107.5C134.261 107.5 132.961 106.35 132.961 103.75C132.961 98.55 135.411 94.25 140.311 94.25C140.911 94.25 141.561 94.35 142.211 94.45ZM154.512 105.7C153.362 111.35 155.062 115.35 161.312 115.35C162.762 115.35 165.862 115.2 167.462 115L168.512 108C168.062 108.05 167.612 108.1 167.112 108.1C165.662 108.1 164.362 107.4 164.662 105.85L170.412 76.85H160.312L154.512 105.7ZM210.212 96.05C212.112 94.85 213.962 94.5 214.662 94.5C216.562 94.5 216.712 95.7 216.462 96.9L212.862 115H222.912L226.862 95.25C227.862 90.2 225.412 86.75 220.212 86.75C216.062 86.75 212.862 88.5 210.362 90C209.412 87.6 206.712 86.85 204.012 86.85C200.762 86.85 197.012 88.2 194.212 89.85L193.912 87.35H185.412L179.962 115H189.962L193.712 96.05C195.662 95 196.962 94.5 198.262 94.5C199.862 94.5 200.262 95.7 200.012 96.9L196.362 115H206.412L210.212 96.05ZM232.72 87.35L228.92 106.5C227.92 111.4 230.87 115.55 235.82 115.55C239.37 115.55 243.07 114 246.07 112.1L246.42 115H254.37L259.82 87.35H249.77L245.97 106.3C243.97 107.3 242.22 107.9 240.97 107.9C239.67 107.9 238.97 106.8 239.22 105.5L242.82 87.35H232.72ZM260.211 107.45L258.561 114.85C261.061 115.35 265.561 115.6 268.211 115.6C276.961 115.6 283.211 112.05 283.211 104.35C283.211 95.95 271.861 98.4 271.861 95.7C271.861 94.7 272.811 93.95 275.861 93.95C278.161 93.95 281.461 94.35 283.211 94.8L284.911 87.65C282.461 87.1 278.861 86.75 276.111 86.75C268.461 86.75 261.411 90 261.411 97.7C261.411 105.85 272.761 103.5 272.761 106C272.761 107.7 270.961 108.3 268.361 108.3C265.761 108.3 262.311 107.9 260.211 107.45ZM309.956 106.15C307.156 107.35 304.356 108.05 301.206 108.05C297.806 108.05 295.806 106.7 295.806 104.3C295.806 104 295.856 103.55 295.956 103.05C297.906 103.6 300.056 103.9 302.056 103.9C307.906 103.9 313.206 101.4 313.206 94.65C313.206 90.5 309.906 86.75 302.856 86.75C291.606 86.75 285.256 95.55 285.256 104.85C285.256 113.3 291.206 115.65 298.506 115.65C302.406 115.65 306.206 114.9 309.106 114.05L309.956 106.15ZM296.556 98.3C297.006 95.7 298.906 93.35 301.656 93.35C303.456 93.35 304.106 94.25 304.106 95.25C304.106 97.2 302.656 98.45 299.056 98.45C298.406 98.45 297.506 98.4 296.556 98.3ZM317.974 87.35L314.174 106.5C313.174 111.4 316.124 115.55 321.074 115.55C324.624 115.55 328.324 114 331.324 112.1L331.674 115H339.624L345.074 87.35H335.024L331.224 106.3C329.224 107.3 327.474 107.9 326.224 107.9C324.924 107.9 324.224 106.8 324.474 105.5L328.074 87.35H317.974ZM374.665 96.05C376.565 94.85 378.415 94.5 379.115 94.5C381.015 94.5 381.165 95.7 380.915 96.9L377.315 115H387.365L391.315 95.25C392.315 90.2 389.865 86.75 384.665 86.75C380.515 86.75 377.315 88.5 374.815 90C373.865 87.6 371.165 86.85 368.465 86.85C365.215 86.85 361.465 88.2 358.665 89.85L358.365 87.35H349.865L344.415 115H354.415L358.165 96.05C360.115 95 361.415 94.5 362.715 94.5C364.315 94.5 364.715 95.7 364.465 96.9L360.815 115H370.865L374.665 96.05ZM30.5616 166.15C27.7616 167.35 24.9616 168.05 21.8116 168.05C18.4116 168.05 16.4116 166.7 16.4116 164.3C16.4116 164 16.4616 163.55 16.5616 163.05C18.5116 163.6 20.6616 163.9 22.6616 163.9C28.5116 163.9 33.8116 161.4 33.8116 154.65C33.8116 150.5 30.5116 146.75 23.4616 146.75C12.2116 146.75 5.86162 155.55 5.86162 164.85C5.86162 173.3 11.8116 175.65 19.1116 175.65C23.0116 175.65 26.8116 174.9 29.7116 174.05L30.5616 166.15ZM17.1616 158.3C17.6116 155.7 19.5116 153.35 22.2616 153.35C24.0616 153.35 24.7116 154.25 24.7116 155.25C24.7116 157.2 23.2616 158.45 19.6616 158.45C19.0116 158.45 18.1116 158.4 17.1616 158.3ZM41.9343 175C41.9843 174.2 42.4843 172.95 43.9843 171.25L46.8843 167.95H46.5843L49.6843 175H60.7843L54.0343 161.65L53.8843 162.25L59.5343 155.95C62.5343 152.65 63.9843 150.2 63.9843 147.35H54.0343C54.0343 148.95 53.6343 150.4 52.1843 152.05L49.3343 155.35L49.7843 155.55L46.1343 147.35H35.3843L42.2343 161L35.5343 168.25C32.8343 171.15 32.2343 173.2 32.1843 175H41.9343ZM67.8335 147.35L60.2835 185.25H70.0835L72.1835 175C73.8835 175.3 75.7835 175.6 77.3835 175.6C87.9835 175.6 93.4335 166.45 93.4335 156.65C93.4335 150.1 89.7835 146.75 85.4335 146.75C82.4835 146.75 79.2835 148 76.3335 150.5L75.7335 147.35H67.8335ZM76.0835 155.95C77.7335 155.15 79.2335 154.8 80.2335 154.8C82.0835 154.8 83.0335 156.1 83.0335 158.6C83.0335 163.85 80.7835 168.1 75.9835 168.1C75.2835 168.1 74.4835 168 73.6835 167.8L76.0835 155.95ZM119.282 166.15C116.482 167.35 113.682 168.05 110.532 168.05C107.132 168.05 105.132 166.7 105.132 164.3C105.132 164 105.182 163.55 105.282 163.05C107.232 163.6 109.382 163.9 111.382 163.9C117.232 163.9 122.532 161.4 122.532 154.65C122.532 150.5 119.232 146.75 112.182 146.75C100.932 146.75 94.5823 155.55 94.5823 164.85C94.5823 173.3 100.532 175.65 107.832 175.65C111.732 175.65 115.532 174.9 118.432 174.05L119.282 166.15ZM105.882 158.3C106.332 155.7 108.232 153.35 110.982 153.35C112.782 153.35 113.432 154.25 113.432 155.25C113.432 157.2 111.982 158.45 108.382 158.45C107.732 158.45 106.832 158.4 105.882 158.3ZM146.05 147.25C145.85 147.25 145.6 147.25 145.4 147.25C142.05 147.25 139.55 148.65 135.95 152.65L136.95 147.35H127.55L122.1 175H132.1L135.2 159.65C138.35 158.3 141.25 157.4 144.15 157L146.05 147.25ZM148.892 144.65H159.192L160.642 137.3H150.342L148.892 144.65ZM148.542 147.35L144.742 166.3C143.642 171.85 145.742 175.3 151.592 175.3C153.042 175.3 155.642 175.15 157.342 174.85L158.542 168.2C155.042 168.25 154.642 166.8 155.142 164.25L158.642 147.35H148.542ZM185.103 166.15C182.303 167.35 179.503 168.05 176.353 168.05C172.953 168.05 170.953 166.7 170.953 164.3C170.953 164 171.003 163.55 171.103 163.05C173.053 163.6 175.203 163.9 177.203 163.9C183.053 163.9 188.353 161.4 188.353 154.65C188.353 150.5 185.053 146.75 178.003 146.75C166.753 146.75 160.403 155.55 160.403 164.85C160.403 173.3 166.353 175.65 173.653 175.65C177.553 175.65 181.353 174.9 184.253 174.05L185.103 166.15ZM171.703 158.3C172.153 155.7 174.053 153.35 176.803 153.35C178.603 153.35 179.253 154.25 179.253 155.25C179.253 157.2 177.803 158.45 174.203 158.45C173.553 158.45 172.653 158.4 171.703 158.3ZM201.671 156.05C203.721 155.05 205.471 154.45 206.721 154.45C208.571 154.45 208.721 155.65 208.471 156.85L204.871 175H214.921L218.871 155.25C219.821 150.4 217.321 146.7 212.221 146.7C208.671 146.7 205.321 148.1 202.221 149.7L201.771 147.35H193.371L187.921 175H197.921L201.671 156.05ZM235.612 167.95C232.912 167.95 230.762 167.1 230.762 163.75C230.762 158.75 233.262 154.25 238.362 154.25C240.512 154.25 242.912 154.75 245.212 155.45L246.712 147.95C243.912 147.1 241.362 146.75 238.112 146.75C226.912 146.75 220.412 155.15 220.412 165.35C220.412 173.3 226.512 175.6 232.412 175.6C235.662 175.6 238.362 175.25 241.412 174.4L242.912 166.85C240.312 167.55 237.712 167.95 235.612 167.95ZM270.357 166.15C267.557 167.35 264.757 168.05 261.607 168.05C258.207 168.05 256.207 166.7 256.207 164.3C256.207 164 256.257 163.55 256.357 163.05C258.307 163.6 260.457 163.9 262.457 163.9C268.307 163.9 273.607 161.4 273.607 154.65C273.607 150.5 270.307 146.75 263.257 146.75C252.007 146.75 245.657 155.55 245.657 164.85C245.657 173.3 251.607 175.65 258.907 175.65C262.807 175.65 266.607 174.9 269.507 174.05L270.357 166.15ZM256.957 158.3C257.407 155.7 259.307 153.35 262.057 153.35C263.857 153.35 264.507 154.25 264.507 155.25C264.507 157.2 263.057 158.45 259.457 158.45C258.807 158.45 257.907 158.4 256.957 158.3ZM310.566 136.8C307.866 136.45 305.516 136.25 303.466 136.25C296.816 136.25 292.866 138.5 291.666 144.6L291.116 147.4L287.616 148L286.416 154.6H289.716L283.616 185.25H293.516L299.716 154.65H306.166L307.566 147.35H300.816L300.966 146.4C301.316 144.3 302.966 143.25 305.316 143.25C306.116 143.25 307.566 143.4 309.216 143.65L310.566 136.8ZM322.067 154.15C324.467 154.15 325.367 155.55 325.367 158C325.267 161.95 323.117 168.2 319.167 168.2C316.867 168.2 315.917 167 315.917 164.65C315.917 160.9 317.867 154.15 322.067 154.15ZM305.617 165.2C305.617 172.2 310.167 175.6 317.717 175.6C328.167 175.6 335.567 168.45 335.567 157.3C335.567 150.3 331.017 146.75 323.417 146.75C312.767 146.75 305.617 154.55 305.617 165.2ZM359.771 147.25C359.571 147.25 359.321 147.25 359.121 147.25C355.771 147.25 353.271 148.65 349.671 152.65L350.671 147.35H341.271L335.821 175H345.821L348.921 159.65C352.071 158.3 354.971 157.4 357.871 157L359.771 147.25ZM398.965 149.05C394.465 147.55 390.015 146.75 386.365 146.75C375.015 146.75 368.265 154.05 368.265 165.75C368.265 172.05 372.115 175.35 376.765 175.35C379.715 175.35 382.865 174.15 385.215 171.85L385.865 175H393.865L398.965 149.05ZM387.865 154.45L385.415 166.3C384.265 167.05 382.915 167.5 381.715 167.5C379.915 167.5 378.615 166.35 378.615 163.75C378.615 158.55 381.065 154.25 385.965 154.25C386.565 154.25 387.215 154.35 387.865 154.45ZM400.166 165.7C399.016 171.35 400.716 175.35 406.966 175.35C408.416 175.35 411.516 175.2 413.116 175L414.166 168C413.716 168.05 413.266 168.1 412.766 168.1C411.316 168.1 410.016 167.4 410.316 165.85L416.066 136.85H405.966L400.166 165.7ZM416.963 165.7C415.813 171.35 417.513 175.35 423.763 175.35C425.213 175.35 428.313 175.2 429.913 175L430.963 168C430.513 168.05 430.063 168.1 429.563 168.1C428.113 168.1 426.813 167.4 427.113 165.85L432.863 136.85H422.763L416.963 165.7Z" fill="#219653"/>
<path d="M0.4 47H11.3L14.4 40.55H25.9L26.3 47H36.9L33.05 10.95H19.45L0.4 47ZM24.4 19.2H24.85L25.35 32.4H18.3L24.4 19.2ZM62.8457 19.25C62.6457 19.25 62.3957 19.25 62.1957 19.25C58.8457 19.25 56.3457 20.65 52.7457 24.65L53.7457 19.35H44.3457L38.8957 47H48.8957L51.9957 31.65C55.1457 30.3 58.0457 29.4 60.9457 29L62.8457 19.25ZM75.6371 26.85H83.1871L84.6371 19.35H77.0871L78.2871 13.25H73.0371C71.4371 16.25 68.9871 19.2 63.9371 19.65L62.4871 26.8H65.5371L63.1871 38.3C61.7871 44.7 65.7871 47.55 71.7371 47.55C73.8871 47.55 76.1371 47.2 78.1871 46.75C78.6371 44.25 79.0871 41.7 79.5871 39.25C78.4371 39.5 77.2371 39.75 76.1371 39.75C74.1871 39.75 73.2871 38.6 73.5871 36.85L75.6371 26.85ZM89.9109 11L82.3109 47H108.661L110.411 38.8H94.5109L95.7609 32.9H108.311L110.011 24.9H97.4609L98.6609 19.25H114.761L116.511 11H89.9109ZM128.384 39.95C125.684 39.95 123.534 39.1 123.534 35.75C123.534 30.75 126.034 26.25 131.134 26.25C133.284 26.25 135.684 26.75 137.984 27.45L139.484 19.95C136.684 19.1 134.134 18.75 130.884 18.75C119.684 18.75 113.184 27.15 113.184 37.35C113.184 45.3 119.284 47.6 125.184 47.6C128.434 47.6 131.134 47.25 134.184 46.4L135.684 38.85C133.084 39.55 130.484 39.95 128.384 39.95ZM151.67 28.1C153.42 27.15 155.27 26.45 156.47 26.45C158.17 26.45 158.67 27.6 158.42 28.9L154.77 47H164.87L168.87 27.2C169.87 22.25 167.22 18.75 162.17 18.75C159.17 18.75 155.82 19.8 152.97 21.4C153.82 17.2 154.67 13.05 155.47 8.85H145.37C142.87 21.55 140.32 34.3 137.87 47H147.87C149.17 40.75 150.42 34.4 151.67 28.1ZM186.812 26.15C189.212 26.15 190.112 27.55 190.112 30C190.012 33.95 187.862 40.2 183.912 40.2C181.612 40.2 180.662 39 180.662 36.65C180.662 32.9 182.612 26.15 186.812 26.15ZM170.362 37.2C170.362 44.2 174.912 47.6 182.462 47.6C192.912 47.6 200.312 40.45 200.312 29.3C200.312 22.3 195.762 18.75 188.162 18.75C177.512 18.75 170.362 26.55 170.362 37.2ZM217.445 16.65H227.745L229.195 9.3H218.895L217.445 16.65ZM217.095 19.35L213.295 38.3C212.195 43.85 214.295 47.3 220.145 47.3C221.595 47.3 224.195 47.15 225.895 46.85L227.095 40.2C223.595 40.25 223.195 38.8 223.695 36.25L227.195 19.35H217.095ZM229.106 39.45L227.456 46.85C229.956 47.35 234.456 47.6 237.106 47.6C245.856 47.6 252.106 44.05 252.106 36.35C252.106 27.95 240.756 30.4 240.756 27.7C240.756 26.7 241.706 25.95 244.756 25.95C247.056 25.95 250.356 26.35 252.106 26.8L253.806 19.65C251.356 19.1 247.756 18.75 245.006 18.75C237.356 18.75 230.306 22 230.306 29.7C230.306 37.85 241.656 35.5 241.656 38C241.656 39.7 239.856 40.3 237.256 40.3C234.656 40.3 231.206 39.9 229.106 39.45ZM296.18 21.05C291.68 19.55 287.23 18.75 283.58 18.75C272.23 18.75 265.48 26.05 265.48 37.75C265.48 44.05 269.33 47.35 273.98 47.35C276.93 47.35 280.08 46.15 282.43 43.85L283.08 47H291.08L296.18 21.05ZM285.08 26.45L282.63 38.3C281.48 39.05 280.13 39.5 278.93 39.5C277.13 39.5 275.83 38.35 275.83 35.75C275.83 30.55 278.28 26.25 283.18 26.25C283.78 26.25 284.43 26.35 285.08 26.45ZM29.9 107L37.45 68.85H27.65L25.45 79.35C23.7 79 22.1 78.75 20.55 78.75C9.7 78.75 4.2 87.8 4.2 97.8C4.2 104.6 8.05 107.5 12.4 107.5C15.4 107.5 18.6 106.2 21.3 103.8L22 107H29.9ZM23.95 86.55L21.55 98.3C20.2 99 18.75 99.45 17.55 99.45C15.65 99.45 14.55 98.3 14.55 95.5C14.75 90.5 16.6 86.25 21.75 86.25C22.45 86.25 23.15 86.4 23.95 86.55ZM40.2477 76.65H50.5477L51.9977 69.3H41.6977L40.2477 76.65ZM39.8977 79.35L36.0977 98.3C34.9977 103.85 37.0977 107.3 42.9477 107.3C44.3977 107.3 46.9977 107.15 48.6977 106.85L49.8977 100.2C46.3977 100.25 45.9977 98.8 46.4977 96.25L49.9977 79.35H39.8977ZM82.6086 81.05C78.0586 79.55 73.6586 78.75 70.1586 78.75C58.5086 78.75 51.7586 86.35 51.7586 97.8C51.7586 104.45 55.7586 107.35 60.3086 107.35C63.2586 107.35 66.4086 106.2 68.9086 103.85L68.7586 105.1C68.2586 109.3 64.8586 110.45 61.1086 110.45C58.0586 110.45 54.3586 109.65 51.9086 108.9L50.4086 116.55C53.7086 117.3 57.4586 117.85 60.9086 117.85C69.2586 117.85 75.9086 115.1 77.7086 106.05L82.6086 81.05ZM71.5086 86.5L69.1586 98.3C67.9086 99.05 66.4586 99.5 65.2086 99.5C63.4086 99.5 62.1086 98.3 62.1086 95.85C62.1086 90.55 64.2586 86.3 69.3586 86.3C70.0586 86.3 70.7586 86.35 71.5086 86.5ZM87.7574 76.65H98.0574L99.5074 69.3H89.2074L87.7574 76.65ZM87.4074 79.35L83.6074 98.3C82.5074 103.85 84.6074 107.3 90.4574 107.3C91.9074 107.3 94.5074 107.15 96.2074 106.85L97.4074 100.2C93.9074 100.25 93.5074 98.8 94.0074 96.25L97.5074 79.35H87.4074ZM113.625 86.85H121.175L122.625 79.35H115.075L116.275 73.25H111.025C109.425 76.25 106.975 79.2 101.925 79.65L100.475 86.8H103.525L101.175 98.3C99.7754 104.7 103.775 107.55 109.725 107.55C111.875 107.55 114.125 107.2 116.175 106.75C116.625 104.25 117.075 101.7 117.575 99.25C116.425 99.5 115.225 99.75 114.125 99.75C112.175 99.75 111.275 98.6 111.575 96.85L113.625 86.85ZM151.649 81.05C147.149 79.55 142.699 78.75 139.049 78.75C127.699 78.75 120.949 86.05 120.949 97.75C120.949 104.05 124.799 107.35 129.449 107.35C132.399 107.35 135.549 106.15 137.899 103.85L138.549 107H146.549L151.649 81.05ZM140.549 86.45L138.099 98.3C136.949 99.05 135.599 99.5 134.399 99.5C132.599 99.5 131.299 98.35 131.299 95.75C131.299 90.55 133.749 86.25 138.649 86.25C139.249 86.25 139.899 86.35 140.549 86.45ZM152.85 97.7C151.7 103.35 153.4 107.35 159.65 107.35C161.1 107.35 164.2 107.2 165.8 107L166.85 100C166.4 100.05 165.95 100.1 165.45 100.1C164 100.1 162.7 99.4 163 97.85L168.75 68.85H158.65L152.85 97.7ZM208.55 88.05C210.45 86.85 212.3 86.5 213 86.5C214.9 86.5 215.05 87.7 214.8 88.9L211.2 107H221.25L225.2 87.25C226.2 82.2 223.75 78.75 218.55 78.75C214.4 78.75 211.2 80.5 208.7 82C207.75 79.6 205.05 78.85 202.35 78.85C199.1 78.85 195.35 80.2 192.55 81.85L192.25 79.35H183.75L178.3 107H188.3L192.05 88.05C194 87 195.3 86.5 196.6 86.5C198.2 86.5 198.6 87.7 198.35 88.9L194.7 107H204.75L208.55 88.05ZM231.059 79.35L227.259 98.5C226.259 103.4 229.209 107.55 234.159 107.55C237.709 107.55 241.409 106 244.409 104.1L244.759 107H252.709L258.159 79.35H248.109L244.309 98.3C242.309 99.3 240.559 99.9 239.309 99.9C238.009 99.9 237.309 98.8 237.559 97.5L241.159 79.35H231.059ZM258.549 99.45L256.899 106.85C259.399 107.35 263.899 107.6 266.549 107.6C275.299 107.6 281.549 104.05 281.549 96.35C281.549 87.95 270.199 90.4 270.199 87.7C270.199 86.7 271.149 85.95 274.199 85.95C276.499 85.95 279.799 86.35 281.549 86.8L283.249 79.65C280.799 79.1 277.199 78.75 274.449 78.75C266.799 78.75 259.749 82 259.749 89.7C259.749 97.85 271.099 95.5 271.099 98C271.099 99.7 269.299 100.3 266.699 100.3C264.099 100.3 260.649 99.9 258.549 99.45ZM308.295 98.15C305.495 99.35 302.695 100.05 299.545 100.05C296.145 100.05 294.145 98.7 294.145 96.3C294.145 96 294.195 95.55 294.295 95.05C296.245 95.6 298.395 95.9 300.395 95.9C306.245 95.9 311.545 93.4 311.545 86.65C311.545 82.5 308.245 78.75 301.195 78.75C289.945 78.75 283.595 87.55 283.595 96.85C283.595 105.3 289.545 107.65 296.845 107.65C300.745 107.65 304.545 106.9 307.445 106.05L308.295 98.15ZM294.895 90.3C295.345 87.7 297.245 85.35 299.995 85.35C301.795 85.35 302.445 86.25 302.445 87.25C302.445 89.2 300.995 90.45 297.395 90.45C296.745 90.45 295.845 90.4 294.895 90.3ZM316.313 79.35L312.513 98.5C311.512 103.4 314.463 107.55 319.413 107.55C322.963 107.55 326.663 106 329.663 104.1L330.013 107H337.963L343.413 79.35H333.363L329.563 98.3C327.563 99.3 325.813 99.9 324.563 99.9C323.263 99.9 322.563 98.8 322.813 97.5L326.413 79.35H316.313ZM373.003 88.05C374.903 86.85 376.753 86.5 377.453 86.5C379.353 86.5 379.503 87.7 379.253 88.9L375.653 107H385.703L389.653 87.25C390.653 82.2 388.203 78.75 383.003 78.75C378.853 78.75 375.653 80.5 373.153 82C372.203 79.6 369.503 78.85 366.803 78.85C363.553 78.85 359.803 80.2 357.003 81.85L356.703 79.35H348.203L342.753 107H352.753L356.503 88.05C358.453 87 359.753 86.5 361.053 86.5C362.653 86.5 363.053 87.7 362.803 88.9L359.153 107H369.203L373.003 88.05ZM28.9 158.15C26.1 159.35 23.3 160.05 20.15 160.05C16.75 160.05 14.75 158.7 14.75 156.3C14.75 156 14.8 155.55 14.9 155.05C16.85 155.6 19 155.9 21 155.9C26.85 155.9 32.15 153.4 32.15 146.65C32.15 142.5 28.85 138.75 21.8 138.75C10.55 138.75 4.2 147.55 4.2 156.85C4.2 165.3 10.15 167.65 17.45 167.65C21.35 167.65 25.15 166.9 28.05 166.05L28.9 158.15ZM15.5 150.3C15.95 147.7 17.85 145.35 20.6 145.35C22.4 145.35 23.05 146.25 23.05 147.25C23.05 149.2 21.6 150.45 18 150.45C17.35 150.45 16.45 150.4 15.5 150.3ZM40.2727 167C40.3227 166.2 40.8227 164.95 42.3227 163.25L45.2227 159.95H44.9227L48.0227 167H59.1227L52.3727 153.65L52.2227 154.25L57.8727 147.95C60.8727 144.65 62.3227 142.2 62.3227 139.35H52.3727C52.3727 140.95 51.9727 142.4 50.5227 144.05L47.6727 147.35L48.1227 147.55L44.4727 139.35H33.7227L40.5727 153L33.8727 160.25C31.1727 163.15 30.5727 165.2 30.5227 167H40.2727ZM66.1719 139.35L58.6219 177.25H68.4219L70.5219 167C72.2219 167.3 74.1219 167.6 75.7219 167.6C86.3219 167.6 91.7719 158.45 91.7719 148.65C91.7719 142.1 88.1219 138.75 83.7719 138.75C80.8219 138.75 77.6219 140 74.6719 142.5L74.0719 139.35H66.1719ZM74.4219 147.95C76.0719 147.15 77.5719 146.8 78.5719 146.8C80.4219 146.8 81.3719 148.1 81.3719 150.6C81.3719 155.85 79.1219 160.1 74.3219 160.1C73.6219 160.1 72.8219 160 72.0219 159.8L74.4219 147.95ZM117.621 158.15C114.821 159.35 112.021 160.05 108.871 160.05C105.471 160.05 103.471 158.7 103.471 156.3C103.471 156 103.521 155.55 103.621 155.05C105.571 155.6 107.721 155.9 109.721 155.9C115.571 155.9 120.871 153.4 120.871 146.65C120.871 142.5 117.571 138.75 110.521 138.75C99.2707 138.75 92.9207 147.55 92.9207 156.85C92.9207 165.3 98.8707 167.65 106.171 167.65C110.071 167.65 113.871 166.9 116.771 166.05L117.621 158.15ZM104.221 150.3C104.671 147.7 106.571 145.35 109.321 145.35C111.121 145.35 111.771 146.25 111.771 147.25C111.771 149.2 110.321 150.45 106.721 150.45C106.071 150.45 105.171 150.4 104.221 150.3ZM144.389 139.25C144.189 139.25 143.939 139.25 143.739 139.25C140.389 139.25 137.889 140.65 134.289 144.65L135.289 139.35H125.889L120.439 167H130.439L133.539 151.65C136.689 150.3 139.589 149.4 142.489 149L144.389 139.25ZM147.23 136.65H157.53L158.98 129.3H148.68L147.23 136.65ZM146.88 139.35L143.08 158.3C141.98 163.85 144.08 167.3 149.93 167.3C151.38 167.3 153.98 167.15 155.68 166.85L156.88 160.2C153.38 160.25 152.98 158.8 153.48 156.25L156.98 139.35H146.88ZM183.441 158.15C180.641 159.35 177.841 160.05 174.691 160.05C171.291 160.05 169.291 158.7 169.291 156.3C169.291 156 169.341 155.55 169.441 155.05C171.391 155.6 173.541 155.9 175.541 155.9C181.391 155.9 186.691 153.4 186.691 146.65C186.691 142.5 183.391 138.75 176.341 138.75C165.091 138.75 158.741 147.55 158.741 156.85C158.741 165.3 164.691 167.65 171.991 167.65C175.891 167.65 179.691 166.9 182.591 166.05L183.441 158.15ZM170.041 150.3C170.491 147.7 172.391 145.35 175.141 145.35C176.941 145.35 177.591 146.25 177.591 147.25C177.591 149.2 176.141 150.45 172.541 150.45C171.891 150.45 170.991 150.4 170.041 150.3ZM200.009 148.05C202.059 147.05 203.809 146.45 205.059 146.45C206.909 146.45 207.059 147.65 206.809 148.85L203.209 167H213.259L217.209 147.25C218.159 142.4 215.659 138.7 210.559 138.7C207.009 138.7 203.659 140.1 200.559 141.7L200.109 139.35H191.709L186.259 167H196.259L200.009 148.05ZM233.951 159.95C231.251 159.95 229.101 159.1 229.101 155.75C229.101 150.75 231.601 146.25 236.701 146.25C238.851 146.25 241.251 146.75 243.551 147.45L245.051 139.95C242.251 139.1 239.701 138.75 236.451 138.75C225.251 138.75 218.751 147.15 218.751 157.35C218.751 165.3 224.851 167.6 230.751 167.6C234.001 167.6 236.701 167.25 239.751 166.4L241.251 158.85C238.651 159.55 236.051 159.95 233.951 159.95ZM268.695 158.15C265.895 159.35 263.095 160.05 259.945 160.05C256.545 160.05 254.545 158.7 254.545 156.3C254.545 156 254.595 155.55 254.695 155.05C256.645 155.6 258.795 155.9 260.795 155.9C266.645 155.9 271.945 153.4 271.945 146.65C271.945 142.5 268.645 138.75 261.595 138.75C250.345 138.75 243.995 147.55 243.995 156.85C243.995 165.3 249.945 167.65 257.245 167.65C261.145 167.65 264.945 166.9 267.845 166.05L268.695 158.15ZM255.295 150.3C255.745 147.7 257.645 145.35 260.395 145.35C262.195 145.35 262.845 146.25 262.845 147.25C262.845 149.2 261.395 150.45 257.795 150.45C257.145 150.45 256.245 150.4 255.295 150.3ZM308.904 128.8C306.204 128.45 303.854 128.25 301.804 128.25C295.154 128.25 291.204 130.5 290.004 136.6L289.454 139.4L285.954 140L284.754 146.6H288.054L281.954 177.25H291.854L298.054 146.65H304.504L305.904 139.35H299.154L299.304 138.4C299.654 136.3 301.304 135.25 303.654 135.25C304.454 135.25 305.904 135.4 307.554 135.65L308.904 128.8ZM320.406 146.15C322.806 146.15 323.706 147.55 323.706 150C323.606 153.95 321.456 160.2 317.506 160.2C315.206 160.2 314.256 159 314.256 156.65C314.256 152.9 316.206 146.15 320.406 146.15ZM303.956 157.2C303.956 164.2 308.506 167.6 316.056 167.6C326.506 167.6 333.906 160.45 333.906 149.3C333.906 142.3 329.356 138.75 321.756 138.75C311.106 138.75 303.956 146.55 303.956 157.2ZM358.109 139.25C357.909 139.25 357.659 139.25 357.459 139.25C354.109 139.25 351.609 140.65 348.009 144.65L349.009 139.35H339.609L334.159 167H344.159L347.259 151.65C350.409 150.3 353.309 149.4 356.209 149L358.109 139.25ZM397.304 141.05C392.804 139.55 388.354 138.75 384.704 138.75C373.354 138.75 366.604 146.05 366.604 157.75C366.604 164.05 370.454 167.35 375.104 167.35C378.054 167.35 381.204 166.15 383.554 163.85L384.204 167H392.204L397.304 141.05ZM386.204 146.45L383.754 158.3C382.604 159.05 381.254 159.5 380.054 159.5C378.254 159.5 376.954 158.35 376.954 155.75C376.954 150.55 379.404 146.25 384.304 146.25C384.904 146.25 385.554 146.35 386.204 146.45ZM398.505 157.7C397.355 163.35 399.055 167.35 405.305 167.35C406.755 167.35 409.855 167.2 411.455 167L412.505 160C412.055 160.05 411.605 160.1 411.105 160.1C409.655 160.1 408.355 159.4 408.655 157.85L414.405 128.85H404.305L398.505 157.7ZM415.302 157.7C414.152 163.35 415.852 167.35 422.102 167.35C423.552 167.35 426.652 167.2 428.252 167L429.302 160C428.852 160.05 428.402 160.1 427.902 160.1C426.452 160.1 425.152 159.4 425.452 157.85L431.202 128.85H421.102L415.302 157.7Z" fill="white"/>
</svg>
